<?xml version="1.0" encoding="utf-8" standalone="no"?>
<!DOCTYPE svg PUBLIC "-//W3C//DTD SVG 1.1//EN"
  "http://www.w3.org/Graphics/SVG/1.1/DTD/svg11.dtd">
<svg xmlns:xlink="http://www.w3.org/1999/xlink" width="460.8pt" height="345.6pt" viewBox="0 0 460.8 345.6" xmlns="http://www.w3.org/2000/svg" version="1.1">
 <metadata>
  <rdf:RDF xmlns:dc="http://purl.org/dc/elements/1.1/" xmlns:cc="http://creativecommons.org/ns#" xmlns:rdf="http://www.w3.org/1999/02/22-rdf-syntax-ns#">
   <cc:Work>
    <dc:type rdf:resource="http://purl.org/dc/dcmitype/StillImage"/>
    <dc:date>2022-06-19T16:56:01.620862</dc:date>
    <dc:format>image/svg+xml</dc:format>
    <dc:creator>
     <cc:Agent>
      <dc:title>Matplotlib v3.5.2, https://matplotlib.org/</dc:title>
     </cc:Agent>
    </dc:creator>
   </cc:Work>
  </rdf:RDF>
 </metadata>
 <defs>
  <style type="text/css">*{stroke-linejoin: round; stroke-linecap: butt}</style>
 </defs>
 <g id="figure_1">
  <g id="patch_1">
   <path d="M 0 345.6 
L 460.8 345.6 
L 460.8 0 
L 0 0 
z
" style="fill: #ffffff"/>
  </g>
  <g id="axes_1">
   <g id="patch_2">
    <path d="M 57.6 307.584 
L 414.72 307.584 
L 414.72 41.472 
L 57.6 41.472 
z
" style="fill: #ffffff"/>
   </g>
   <g id="matplotlib.axis_1">
    <g id="xtick_1">
     <g id="line2d_1">
      <defs>
       <path id="m7190d01266" d="M 0 0 
L 0 3.5 
" style="stroke: #000000; stroke-width: 0.8"/>
      </defs>
      <g>
       <use xlink:href="#m7190d01266" x="73.832727" y="307.584" style="stroke: #000000; stroke-width: 0.8"/>
      </g>
     </g>
     <g id="text_1">
      <!-- 0 -->
      <g transform="translate(70.651477 322.182437)scale(0.1 -0.1)">
       <defs>
        <path id="DejaVuSans-30" d="M 2034 4250 
Q 1547 4250 1301 3770 
Q 1056 3291 1056 2328 
Q 1056 1369 1301 889 
Q 1547 409 2034 409 
Q 2525 409 2770 889 
Q 3016 1369 3016 2328 
Q 3016 3291 2770 3770 
Q 2525 4250 2034 4250 
z
M 2034 4750 
Q 2819 4750 3233 4129 
Q 3647 3509 3647 2328 
Q 3647 1150 3233 529 
Q 2819 -91 2034 -91 
Q 1250 -91 836 529 
Q 422 1150 422 2328 
Q 422 3509 836 4129 
Q 1250 4750 2034 4750 
z
" transform="scale(0.015625)"/>
       </defs>
       <use xlink:href="#DejaVuSans-30"/>
      </g>
     </g>
    </g>
    <g id="xtick_2">
     <g id="line2d_2">
      <g>
       <use xlink:href="#m7190d01266" x="117.859652" y="307.584" style="stroke: #000000; stroke-width: 0.8"/>
      </g>
     </g>
     <g id="text_2">
      <!-- 500 -->
      <g transform="translate(108.315902 322.182437)scale(0.1 -0.1)">
       <defs>
        <path id="DejaVuSans-35" d="M 691 4666 
L 3169 4666 
L 3169 4134 
L 1269 4134 
L 1269 2991 
Q 1406 3038 1543 3061 
Q 1681 3084 1819 3084 
Q 2600 3084 3056 2656 
Q 3513 2228 3513 1497 
Q 3513 744 3044 326 
Q 2575 -91 1722 -91 
Q 1428 -91 1123 -41 
Q 819 9 494 109 
L 494 744 
Q 775 591 1075 516 
Q 1375 441 1709 441 
Q 2250 441 2565 725 
Q 2881 1009 2881 1497 
Q 2881 1984 2565 2268 
Q 2250 2553 1709 2553 
Q 1456 2553 1204 2497 
Q 953 2441 691 2322 
L 691 4666 
z
" transform="scale(0.015625)"/>
       </defs>
       <use xlink:href="#DejaVuSans-35"/>
       <use xlink:href="#DejaVuSans-30" x="63.623047"/>
       <use xlink:href="#DejaVuSans-30" x="127.246094"/>
      </g>
     </g>
    </g>
    <g id="xtick_3">
     <g id="line2d_3">
      <g>
       <use xlink:href="#m7190d01266" x="161.886577" y="307.584" style="stroke: #000000; stroke-width: 0.8"/>
      </g>
     </g>
     <g id="text_3">
      <!-- 1000 -->
      <g transform="translate(149.161577 322.182437)scale(0.1 -0.1)">
       <defs>
        <path id="DejaVuSans-31" d="M 794 531 
L 1825 531 
L 1825 4091 
L 703 3866 
L 703 4441 
L 1819 4666 
L 2450 4666 
L 2450 531 
L 3481 531 
L 3481 0 
L 794 0 
L 794 531 
z
" transform="scale(0.015625)"/>
       </defs>
       <use xlink:href="#DejaVuSans-31"/>
       <use xlink:href="#DejaVuSans-30" x="63.623047"/>
       <use xlink:href="#DejaVuSans-30" x="127.246094"/>
       <use xlink:href="#DejaVuSans-30" x="190.869141"/>
      </g>
     </g>
    </g>
    <g id="xtick_4">
     <g id="line2d_4">
      <g>
       <use xlink:href="#m7190d01266" x="205.913502" y="307.584" style="stroke: #000000; stroke-width: 0.8"/>
      </g>
     </g>
     <g id="text_4">
      <!-- 1500 -->
      <g transform="translate(193.188502 322.182437)scale(0.1 -0.1)">
       <use xlink:href="#DejaVuSans-31"/>
       <use xlink:href="#DejaVuSans-35" x="63.623047"/>
       <use xlink:href="#DejaVuSans-30" x="127.246094"/>
       <use xlink:href="#DejaVuSans-30" x="190.869141"/>
      </g>
     </g>
    </g>
    <g id="xtick_5">
     <g id="line2d_5">
      <g>
       <use xlink:href="#m7190d01266" x="249.940428" y="307.584" style="stroke: #000000; stroke-width: 0.8"/>
      </g>
     </g>
     <g id="text_5">
      <!-- 2000 -->
      <g transform="translate(237.215428 322.182437)scale(0.1 -0.1)">
       <defs>
        <path id="DejaVuSans-32" d="M 1228 531 
L 3431 531 
L 3431 0 
L 469 0 
L 469 531 
Q 828 903 1448 1529 
Q 2069 2156 2228 2338 
Q 2531 2678 2651 2914 
Q 2772 3150 2772 3378 
Q 2772 3750 2511 3984 
Q 2250 4219 1831 4219 
Q 1534 4219 1204 4116 
Q 875 4013 500 3803 
L 500 4441 
Q 881 4594 1212 4672 
Q 1544 4750 1819 4750 
Q 2544 4750 2975 4387 
Q 3406 4025 3406 3419 
Q 3406 3131 3298 2873 
Q 3191 2616 2906 2266 
Q 2828 2175 2409 1742 
Q 1991 1309 1228 531 
z
" transform="scale(0.015625)"/>
       </defs>
       <use xlink:href="#DejaVuSans-32"/>
       <use xlink:href="#DejaVuSans-30" x="63.623047"/>
       <use xlink:href="#DejaVuSans-30" x="127.246094"/>
       <use xlink:href="#DejaVuSans-30" x="190.869141"/>
      </g>
     </g>
    </g>
    <g id="xtick_6">
     <g id="line2d_6">
      <g>
       <use xlink:href="#m7190d01266" x="293.967353" y="307.584" style="stroke: #000000; stroke-width: 0.8"/>
      </g>
     </g>
     <g id="text_6">
      <!-- 2500 -->
      <g transform="translate(281.242353 322.182437)scale(0.1 -0.1)">
       <use xlink:href="#DejaVuSans-32"/>
       <use xlink:href="#DejaVuSans-35" x="63.623047"/>
       <use xlink:href="#DejaVuSans-30" x="127.246094"/>
       <use xlink:href="#DejaVuSans-30" x="190.869141"/>
      </g>
     </g>
    </g>
    <g id="xtick_7">
     <g id="line2d_7">
      <g>
       <use xlink:href="#m7190d01266" x="337.994278" y="307.584" style="stroke: #000000; stroke-width: 0.8"/>
      </g>
     </g>
     <g id="text_7">
      <!-- 3000 -->
      <g transform="translate(325.269278 322.182437)scale(0.1 -0.1)">
       <defs>
        <path id="DejaVuSans-33" d="M 2597 2516 
Q 3050 2419 3304 2112 
Q 3559 1806 3559 1356 
Q 3559 666 3084 287 
Q 2609 -91 1734 -91 
Q 1441 -91 1130 -33 
Q 819 25 488 141 
L 488 750 
Q 750 597 1062 519 
Q 1375 441 1716 441 
Q 2309 441 2620 675 
Q 2931 909 2931 1356 
Q 2931 1769 2642 2001 
Q 2353 2234 1838 2234 
L 1294 2234 
L 1294 2753 
L 1863 2753 
Q 2328 2753 2575 2939 
Q 2822 3125 2822 3475 
Q 2822 3834 2567 4026 
Q 2313 4219 1838 4219 
Q 1578 4219 1281 4162 
Q 984 4106 628 3988 
L 628 4550 
Q 988 4650 1302 4700 
Q 1616 4750 1894 4750 
Q 2613 4750 3031 4423 
Q 3450 4097 3450 3541 
Q 3450 3153 3228 2886 
Q 3006 2619 2597 2516 
z
" transform="scale(0.015625)"/>
       </defs>
       <use xlink:href="#DejaVuSans-33"/>
       <use xlink:href="#DejaVuSans-30" x="63.623047"/>
       <use xlink:href="#DejaVuSans-30" x="127.246094"/>
       <use xlink:href="#DejaVuSans-30" x="190.869141"/>
      </g>
     </g>
    </g>
    <g id="xtick_8">
     <g id="line2d_8">
      <g>
       <use xlink:href="#m7190d01266" x="382.021203" y="307.584" style="stroke: #000000; stroke-width: 0.8"/>
      </g>
     </g>
     <g id="text_8">
      <!-- 3500 -->
      <g transform="translate(369.296203 322.182437)scale(0.1 -0.1)">
       <use xlink:href="#DejaVuSans-33"/>
       <use xlink:href="#DejaVuSans-35" x="63.623047"/>
       <use xlink:href="#DejaVuSans-30" x="127.246094"/>
       <use xlink:href="#DejaVuSans-30" x="190.869141"/>
      </g>
     </g>
    </g>
    <g id="text_9">
     <!-- Iteration -->
     <g transform="translate(214.951406 335.860562)scale(0.1 -0.1)">
      <defs>
       <path id="DejaVuSans-49" d="M 628 4666 
L 1259 4666 
L 1259 0 
L 628 0 
L 628 4666 
z
" transform="scale(0.015625)"/>
       <path id="DejaVuSans-74" d="M 1172 4494 
L 1172 3500 
L 2356 3500 
L 2356 3053 
L 1172 3053 
L 1172 1153 
Q 1172 725 1289 603 
Q 1406 481 1766 481 
L 2356 481 
L 2356 0 
L 1766 0 
Q 1100 0 847 248 
Q 594 497 594 1153 
L 594 3053 
L 172 3053 
L 172 3500 
L 594 3500 
L 594 4494 
L 1172 4494 
z
" transform="scale(0.015625)"/>
       <path id="DejaVuSans-65" d="M 3597 1894 
L 3597 1613 
L 953 1613 
Q 991 1019 1311 708 
Q 1631 397 2203 397 
Q 2534 397 2845 478 
Q 3156 559 3463 722 
L 3463 178 
Q 3153 47 2828 -22 
Q 2503 -91 2169 -91 
Q 1331 -91 842 396 
Q 353 884 353 1716 
Q 353 2575 817 3079 
Q 1281 3584 2069 3584 
Q 2775 3584 3186 3129 
Q 3597 2675 3597 1894 
z
M 3022 2063 
Q 3016 2534 2758 2815 
Q 2500 3097 2075 3097 
Q 1594 3097 1305 2825 
Q 1016 2553 972 2059 
L 3022 2063 
z
" transform="scale(0.015625)"/>
       <path id="DejaVuSans-72" d="M 2631 2963 
Q 2534 3019 2420 3045 
Q 2306 3072 2169 3072 
Q 1681 3072 1420 2755 
Q 1159 2438 1159 1844 
L 1159 0 
L 581 0 
L 581 3500 
L 1159 3500 
L 1159 2956 
Q 1341 3275 1631 3429 
Q 1922 3584 2338 3584 
Q 2397 3584 2469 3576 
Q 2541 3569 2628 3553 
L 2631 2963 
z
" transform="scale(0.015625)"/>
       <path id="DejaVuSans-61" d="M 2194 1759 
Q 1497 1759 1228 1600 
Q 959 1441 959 1056 
Q 959 750 1161 570 
Q 1363 391 1709 391 
Q 2188 391 2477 730 
Q 2766 1069 2766 1631 
L 2766 1759 
L 2194 1759 
z
M 3341 1997 
L 3341 0 
L 2766 0 
L 2766 531 
Q 2569 213 2275 61 
Q 1981 -91 1556 -91 
Q 1019 -91 701 211 
Q 384 513 384 1019 
Q 384 1609 779 1909 
Q 1175 2209 1959 2209 
L 2766 2209 
L 2766 2266 
Q 2766 2663 2505 2880 
Q 2244 3097 1772 3097 
Q 1472 3097 1187 3025 
Q 903 2953 641 2809 
L 641 3341 
Q 956 3463 1253 3523 
Q 1550 3584 1831 3584 
Q 2591 3584 2966 3190 
Q 3341 2797 3341 1997 
z
" transform="scale(0.015625)"/>
       <path id="DejaVuSans-69" d="M 603 3500 
L 1178 3500 
L 1178 0 
L 603 0 
L 603 3500 
z
M 603 4863 
L 1178 4863 
L 1178 4134 
L 603 4134 
L 603 4863 
z
" transform="scale(0.015625)"/>
       <path id="DejaVuSans-6f" d="M 1959 3097 
Q 1497 3097 1228 2736 
Q 959 2375 959 1747 
Q 959 1119 1226 758 
Q 1494 397 1959 397 
Q 2419 397 2687 759 
Q 2956 1122 2956 1747 
Q 2956 2369 2687 2733 
Q 2419 3097 1959 3097 
z
M 1959 3584 
Q 2709 3584 3137 3096 
Q 3566 2609 3566 1747 
Q 3566 888 3137 398 
Q 2709 -91 1959 -91 
Q 1206 -91 779 398 
Q 353 888 353 1747 
Q 353 2609 779 3096 
Q 1206 3584 1959 3584 
z
" transform="scale(0.015625)"/>
       <path id="DejaVuSans-6e" d="M 3513 2113 
L 3513 0 
L 2938 0 
L 2938 2094 
Q 2938 2591 2744 2837 
Q 2550 3084 2163 3084 
Q 1697 3084 1428 2787 
Q 1159 2491 1159 1978 
L 1159 0 
L 581 0 
L 581 3500 
L 1159 3500 
L 1159 2956 
Q 1366 3272 1645 3428 
Q 1925 3584 2291 3584 
Q 2894 3584 3203 3211 
Q 3513 2838 3513 2113 
z
" transform="scale(0.015625)"/>
      </defs>
      <use xlink:href="#DejaVuSans-49"/>
      <use xlink:href="#DejaVuSans-74" x="29.492188"/>
      <use xlink:href="#DejaVuSans-65" x="68.701172"/>
      <use xlink:href="#DejaVuSans-72" x="130.224609"/>
      <use xlink:href="#DejaVuSans-61" x="171.337891"/>
      <use xlink:href="#DejaVuSans-74" x="232.617188"/>
      <use xlink:href="#DejaVuSans-69" x="271.826172"/>
      <use xlink:href="#DejaVuSans-6f" x="299.609375"/>
      <use xlink:href="#DejaVuSans-6e" x="360.791016"/>
     </g>
    </g>
   </g>
   <g id="matplotlib.axis_2">
    <g id="ytick_1">
     <g id="line2d_9">
      <defs>
       <path id="mf08866951a" d="M 0 0 
L -3.5 0 
" style="stroke: #000000; stroke-width: 0.8"/>
      </defs>
      <g>
       <use xlink:href="#mf08866951a" x="57.6" y="295.488" style="stroke: #000000; stroke-width: 0.8"/>
      </g>
     </g>
     <g id="text_10">
      <!-- 0.0 -->
      <g transform="translate(34.696875 299.287219)scale(0.1 -0.1)">
       <defs>
        <path id="DejaVuSans-2e" d="M 684 794 
L 1344 794 
L 1344 0 
L 684 0 
L 684 794 
z
" transform="scale(0.015625)"/>
       </defs>
       <use xlink:href="#DejaVuSans-30"/>
       <use xlink:href="#DejaVuSans-2e" x="63.623047"/>
       <use xlink:href="#DejaVuSans-30" x="95.410156"/>
      </g>
     </g>
    </g>
    <g id="ytick_2">
     <g id="line2d_10">
      <g>
       <use xlink:href="#mf08866951a" x="57.6" y="263.656421" style="stroke: #000000; stroke-width: 0.8"/>
      </g>
     </g>
     <g id="text_11">
      <!-- 2.5 -->
      <g transform="translate(34.696875 267.45564)scale(0.1 -0.1)">
       <use xlink:href="#DejaVuSans-32"/>
       <use xlink:href="#DejaVuSans-2e" x="63.623047"/>
       <use xlink:href="#DejaVuSans-35" x="95.410156"/>
      </g>
     </g>
    </g>
    <g id="ytick_3">
     <g id="line2d_11">
      <g>
       <use xlink:href="#mf08866951a" x="57.6" y="231.824842" style="stroke: #000000; stroke-width: 0.8"/>
      </g>
     </g>
     <g id="text_12">
      <!-- 5.0 -->
      <g transform="translate(34.696875 235.624061)scale(0.1 -0.1)">
       <use xlink:href="#DejaVuSans-35"/>
       <use xlink:href="#DejaVuSans-2e" x="63.623047"/>
       <use xlink:href="#DejaVuSans-30" x="95.410156"/>
      </g>
     </g>
    </g>
    <g id="ytick_4">
     <g id="line2d_12">
      <g>
       <use xlink:href="#mf08866951a" x="57.6" y="199.993263" style="stroke: #000000; stroke-width: 0.8"/>
      </g>
     </g>
     <g id="text_13">
      <!-- 7.5 -->
      <g transform="translate(34.696875 203.792482)scale(0.1 -0.1)">
       <defs>
        <path id="DejaVuSans-37" d="M 525 4666 
L 3525 4666 
L 3525 4397 
L 1831 0 
L 1172 0 
L 2766 4134 
L 525 4134 
L 525 4666 
z
" transform="scale(0.015625)"/>
       </defs>
       <use xlink:href="#DejaVuSans-37"/>
       <use xlink:href="#DejaVuSans-2e" x="63.623047"/>
       <use xlink:href="#DejaVuSans-35" x="95.410156"/>
      </g>
     </g>
    </g>
    <g id="ytick_5">
     <g id="line2d_13">
      <g>
       <use xlink:href="#mf08866951a" x="57.6" y="168.161684" style="stroke: #000000; stroke-width: 0.8"/>
      </g>
     </g>
     <g id="text_14">
      <!-- 10.0 -->
      <g transform="translate(28.334375 171.960903)scale(0.1 -0.1)">
       <use xlink:href="#DejaVuSans-31"/>
       <use xlink:href="#DejaVuSans-30" x="63.623047"/>
       <use xlink:href="#DejaVuSans-2e" x="127.246094"/>
       <use xlink:href="#DejaVuSans-30" x="159.033203"/>
      </g>
     </g>
    </g>
    <g id="ytick_6">
     <g id="line2d_14">
      <g>
       <use xlink:href="#mf08866951a" x="57.6" y="136.330105" style="stroke: #000000; stroke-width: 0.8"/>
      </g>
     </g>
     <g id="text_15">
      <!-- 12.5 -->
      <g transform="translate(28.334375 140.129324)scale(0.1 -0.1)">
       <use xlink:href="#DejaVuSans-31"/>
       <use xlink:href="#DejaVuSans-32" x="63.623047"/>
       <use xlink:href="#DejaVuSans-2e" x="127.246094"/>
       <use xlink:href="#DejaVuSans-35" x="159.033203"/>
      </g>
     </g>
    </g>
    <g id="ytick_7">
     <g id="line2d_15">
      <g>
       <use xlink:href="#mf08866951a" x="57.6" y="104.498526" style="stroke: #000000; stroke-width: 0.8"/>
      </g>
     </g>
     <g id="text_16">
      <!-- 15.0 -->
      <g transform="translate(28.334375 108.297745)scale(0.1 -0.1)">
       <use xlink:href="#DejaVuSans-31"/>
       <use xlink:href="#DejaVuSans-35" x="63.623047"/>
       <use xlink:href="#DejaVuSans-2e" x="127.246094"/>
       <use xlink:href="#DejaVuSans-30" x="159.033203"/>
      </g>
     </g>
    </g>
    <g id="ytick_8">
     <g id="line2d_16">
      <g>
       <use xlink:href="#mf08866951a" x="57.6" y="72.666947" style="stroke: #000000; stroke-width: 0.8"/>
      </g>
     </g>
     <g id="text_17">
      <!-- 17.5 -->
      <g transform="translate(28.334375 76.466166)scale(0.1 -0.1)">
       <use xlink:href="#DejaVuSans-31"/>
       <use xlink:href="#DejaVuSans-37" x="63.623047"/>
       <use xlink:href="#DejaVuSans-2e" x="127.246094"/>
       <use xlink:href="#DejaVuSans-35" x="159.033203"/>
      </g>
     </g>
    </g>
    <g id="text_18">
     <!-- Error -->
     <g transform="translate(22.254688 186.713156)rotate(-90)scale(0.1 -0.1)">
      <defs>
       <path id="DejaVuSans-45" d="M 628 4666 
L 3578 4666 
L 3578 4134 
L 1259 4134 
L 1259 2753 
L 3481 2753 
L 3481 2222 
L 1259 2222 
L 1259 531 
L 3634 531 
L 3634 0 
L 628 0 
L 628 4666 
z
" transform="scale(0.015625)"/>
      </defs>
      <use xlink:href="#DejaVuSans-45"/>
      <use xlink:href="#DejaVuSans-72" x="63.183594"/>
      <use xlink:href="#DejaVuSans-72" x="102.546875"/>
      <use xlink:href="#DejaVuSans-6f" x="141.410156"/>
      <use xlink:href="#DejaVuSans-72" x="202.591797"/>
     </g>
    </g>
   </g>
   <g id="line2d_17">
    <path d="M 73.920781 257.290105 
L 398.487273 257.290105 
L 398.487273 257.290105 
" clip-path="url(#p3f2914d964)" style="fill: none; stroke: #191970; stroke-width: 1.5; stroke-linecap: square"/>
   </g>
   <g id="line2d_18">
    <path d="M 73.832727 129.963789 
L 73.920781 180.894316 
L 74.008835 244.557474 
L 74.096889 244.557474 
L 74.184943 244.557474 
L 74.272997 244.557474 
L 74.36105 244.557474 
L 74.449104 244.557474 
L 74.537158 257.290105 
L 74.625212 257.290105 
L 74.713266 257.290105 
L 74.80132 257.290105 
L 74.889373 257.290105 
L 74.977427 257.290105 
L 75.065481 257.290105 
L 75.153535 257.290105 
L 75.241589 257.290105 
L 75.329643 257.290105 
L 75.417697 257.290105 
L 75.50575 257.290105 
L 75.593804 257.290105 
L 75.681858 257.290105 
L 75.769912 257.290105 
L 75.857966 257.290105 
L 75.94602 257.290105 
L 76.034074 257.290105 
L 76.122127 257.290105 
L 76.210181 257.290105 
L 76.298235 257.290105 
L 76.386289 257.290105 
L 76.474343 257.290105 
L 76.562397 257.290105 
L 76.65045 257.290105 
L 76.738504 257.290105 
L 76.826558 257.290105 
L 76.914612 257.290105 
L 77.002666 257.290105 
L 77.09072 257.290105 
L 77.178774 257.290105 
L 77.266827 257.290105 
L 77.354881 257.290105 
L 77.442935 257.290105 
L 77.530989 257.290105 
L 77.619043 257.290105 
L 77.707097 257.290105 
L 77.795151 257.290105 
L 77.883204 257.290105 
L 77.971258 257.290105 
L 78.059312 257.290105 
L 78.147366 257.290105 
L 78.23542 257.290105 
L 78.323474 257.290105 
L 78.411527 257.290105 
L 78.499581 257.290105 
L 78.587635 270.022737 
L 78.675689 270.022737 
L 78.763743 270.022737 
L 78.851797 270.022737 
L 78.939851 270.022737 
L 79.027904 270.022737 
L 79.115958 270.022737 
L 79.204012 270.022737 
L 79.292066 270.022737 
L 79.38012 270.022737 
L 79.468174 257.290105 
L 79.556228 270.022737 
L 79.644281 270.022737 
L 79.732335 270.022737 
L 79.820389 270.022737 
L 79.908443 270.022737 
L 79.996497 257.290105 
L 80.084551 270.022737 
" clip-path="url(#p3f2914d964)" style="fill: none; stroke: #3cb371; stroke-width: 1.5; stroke-linecap: square"/>
   </g>
   <g id="line2d_19">
    <path d="M 73.832727 129.963789 
L 73.920781 142.696421 
L 74.008835 180.894316 
L 74.096889 155.429053 
L 74.272997 219.092211 
L 74.36105 219.092211 
L 74.449104 193.626947 
L 74.625212 257.290105 
L 74.889373 257.290105 
L 74.977427 270.022737 
L 75.153535 257.290105 
L 75.417697 257.290105 
L 75.50575 270.022737 
L 75.593804 257.290105 
L 75.769912 270.022737 
L 75.857966 257.290105 
L 76.034074 270.022737 
L 76.210181 257.290105 
L 76.474343 257.290105 
L 76.65045 270.022737 
L 76.914612 270.022737 
L 77.002666 257.290105 
L 77.178774 270.022737 
L 77.266827 270.022737 
L 77.442935 282.755368 
L 77.619043 270.022737 
L 78.147366 270.022737 
L 78.23542 282.755368 
L 78.499581 257.290105 
L 78.675689 270.022737 
L 79.027904 270.022737 
L 79.115958 282.755368 
L 79.204012 270.022737 
L 79.38012 282.755368 
L 79.556228 270.022737 
L 80.436766 270.022737 
L 80.612874 282.755368 
L 80.700928 282.755368 
L 80.877035 270.022737 
L 80.965089 282.755368 
L 81.141197 270.022737 
L 82.197843 270.022737 
L 82.285897 282.755368 
L 82.462005 270.022737 
L 82.902274 270.022737 
L 82.990328 282.755368 
L 83.166435 270.022737 
L 83.518651 270.022737 
L 83.606705 257.290105 
L 83.782812 270.022737 
L 83.95892 270.022737 
L 84.135028 282.755368 
L 84.399189 282.755368 
L 84.487243 270.022737 
L 84.575297 282.755368 
L 84.751405 270.022737 
L 85.279728 270.022737 
L 85.367782 282.755368 
L 85.543889 270.022737 
L 85.896105 270.022737 
L 85.984159 282.755368 
L 86.072212 270.022737 
L 86.160266 282.755368 
L 86.24832 270.022737 
L 86.336374 282.755368 
L 86.512482 270.022737 
L 86.864697 270.022737 
L 86.952751 282.755368 
L 87.128859 270.022737 
L 88.449666 270.022737 
L 88.53772 282.755368 
L 88.713828 270.022737 
L 91.443497 270.022737 
L 91.443497 270.022737 
" clip-path="url(#p3f2914d964)" style="fill: none; stroke: #9370db; stroke-width: 1.5; stroke-linecap: square"/>
   </g>
   <g id="line2d_20">
    <path d="M 73.832727 129.963789 
L 74.096889 168.161684 
L 74.272997 219.092211 
L 74.36105 231.824842 
L 74.449104 219.092211 
L 74.80132 257.290105 
L 74.889373 257.290105 
L 74.977427 244.557474 
L 75.153535 257.290105 
L 75.50575 257.290105 
L 75.593804 270.022737 
L 75.681858 257.290105 
L 75.857966 270.022737 
L 75.94602 270.022737 
L 76.122127 257.290105 
L 76.210181 257.290105 
L 76.386289 270.022737 
L 76.474343 270.022737 
L 76.562397 257.290105 
L 76.65045 270.022737 
L 76.738504 257.290105 
L 76.914612 270.022737 
L 77.09072 270.022737 
L 77.178774 257.290105 
L 77.266827 270.022737 
L 77.442935 257.290105 
L 77.530989 270.022737 
L 77.707097 257.290105 
L 77.883204 270.022737 
L 78.23542 270.022737 
L 78.411527 257.290105 
L 78.499581 270.022737 
L 78.675689 257.290105 
L 78.851797 270.022737 
L 79.204012 270.022737 
L 79.292066 282.755368 
L 79.556228 257.290105 
L 79.732335 270.022737 
L 79.820389 257.290105 
L 79.908443 270.022737 
L 79.996497 257.290105 
L 80.172604 270.022737 
L 80.788981 270.022737 
L 80.965089 257.290105 
L 81.053143 270.022737 
L 81.229251 257.290105 
L 81.405358 270.022737 
L 82.726166 270.022737 
L 82.902274 257.290105 
L 91.443497 257.290105 
L 91.443497 257.290105 
" clip-path="url(#p3f2914d964)" style="fill: none; stroke: #ff4500; stroke-width: 1.5; stroke-linecap: square"/>
   </g>
   <g id="line2d_21">
    <path d="M 73.832727 257.290105 
L 74.008835 129.963789 
L 74.625212 282.755368 
L 74.713266 270.022737 
L 74.889373 282.755368 
L 74.977427 282.755368 
L 75.153535 257.290105 
L 75.329643 282.755368 
L 75.50575 270.022737 
L 75.681858 270.022737 
L 75.769912 257.290105 
L 75.94602 270.022737 
L 76.122127 257.290105 
L 76.298235 270.022737 
L 76.474343 257.290105 
L 76.65045 257.290105 
L 76.826558 270.022737 
L 76.914612 270.022737 
L 77.09072 257.290105 
L 77.266827 270.022737 
L 77.354881 270.022737 
L 77.442935 257.290105 
L 77.619043 270.022737 
L 77.707097 257.290105 
L 77.795151 270.022737 
L 77.971258 257.290105 
L 78.059312 257.290105 
L 78.147366 270.022737 
L 78.323474 257.290105 
L 78.499581 257.290105 
L 78.587635 270.022737 
L 78.763743 257.290105 
L 78.939851 270.022737 
L 79.115958 257.290105 
L 79.204012 257.290105 
L 79.292066 270.022737 
L 79.468174 257.290105 
L 79.556228 257.290105 
L 79.732335 270.022737 
L 79.908443 270.022737 
L 80.084551 257.290105 
L 80.348712 257.290105 
L 80.436766 270.022737 
L 80.612874 257.290105 
L 80.877035 257.290105 
L 81.053143 270.022737 
L 81.229251 257.290105 
L 81.317305 270.022737 
L 81.493412 257.290105 
L 81.581466 270.022737 
L 81.845628 231.824842 
L 81.933681 270.022737 
L 82.021735 257.290105 
L 82.109789 270.022737 
L 82.285897 257.290105 
L 82.373951 270.022737 
L 82.550058 257.290105 
L 82.638112 282.755368 
L 82.81422 270.022737 
L 82.990328 270.022737 
L 83.078382 257.290105 
L 83.166435 270.022737 
L 83.254489 257.290105 
L 83.430597 270.022737 
L 83.606705 257.290105 
L 83.694758 257.290105 
L 83.782812 282.755368 
L 83.95892 257.290105 
L 84.046974 270.022737 
L 84.223082 257.290105 
L 84.575297 257.290105 
L 84.663351 270.022737 
L 84.751405 257.290105 
L 84.839459 270.022737 
L 85.015566 257.290105 
L 85.719997 257.290105 
L 85.808051 270.022737 
L 85.984159 257.290105 
L 86.336374 257.290105 
L 86.512482 270.022737 
L 86.600536 270.022737 
L 86.776643 257.290105 
L 86.864697 257.290105 
L 87.040805 270.022737 
L 87.128859 270.022737 
L 87.304966 257.290105 
L 87.39302 257.290105 
L 87.569128 270.022737 
L 87.921343 270.022737 
L 88.009397 257.290105 
L 88.185505 270.022737 
L 88.273559 270.022737 
L 88.449666 257.290105 
L 88.625774 270.022737 
L 88.889936 270.022737 
L 88.977989 257.290105 
L 89.154097 270.022737 
L 89.506313 270.022737 
L 89.594366 282.755368 
L 89.770474 270.022737 
L 90.298797 270.022737 
L 90.386851 257.290105 
L 90.562959 270.022737 
L 90.651013 257.290105 
L 90.82712 270.022737 
L 90.915174 257.290105 
L 91.003228 270.022737 
L 91.091282 257.290105 
L 91.26739 270.022737 
L 91.443497 270.022737 
L 91.443497 270.022737 
" clip-path="url(#p3f2914d964)" style="fill: none; stroke: #ffd700; stroke-width: 1.5; stroke-linecap: square"/>
   </g>
   <g id="line2d_22">
    <path d="M 73.832727 257.290105 
L 73.920781 257.290105 
L 74.008835 257.290105 
L 74.096889 257.290105 
L 74.184943 257.290105 
L 74.272997 270.022737 
L 74.36105 270.022737 
L 74.449104 270.022737 
L 74.537158 270.022737 
L 74.625212 270.022737 
L 74.713266 270.022737 
L 74.80132 270.022737 
L 74.889373 270.022737 
L 74.977427 270.022737 
L 75.065481 270.022737 
L 75.153535 270.022737 
L 75.241589 270.022737 
L 75.329643 270.022737 
L 75.417697 270.022737 
L 75.50575 270.022737 
L 75.593804 270.022737 
L 75.681858 270.022737 
L 75.769912 270.022737 
L 75.857966 270.022737 
L 75.94602 270.022737 
L 76.034074 270.022737 
L 76.122127 270.022737 
L 76.210181 270.022737 
L 76.298235 270.022737 
L 76.386289 270.022737 
L 76.474343 270.022737 
L 76.562397 270.022737 
L 76.65045 270.022737 
L 76.738504 270.022737 
L 76.826558 270.022737 
L 76.914612 270.022737 
L 77.002666 270.022737 
L 77.09072 270.022737 
L 77.178774 270.022737 
L 77.266827 270.022737 
L 77.354881 270.022737 
L 77.442935 270.022737 
L 77.530989 270.022737 
L 77.619043 270.022737 
L 77.707097 270.022737 
L 77.795151 270.022737 
L 77.883204 270.022737 
L 77.971258 270.022737 
L 78.059312 270.022737 
L 78.147366 270.022737 
L 78.23542 270.022737 
L 78.323474 270.022737 
L 78.411527 270.022737 
" clip-path="url(#p3f2914d964)" style="fill: none; stroke: #708090; stroke-width: 1.5; stroke-linecap: square"/>
   </g>
   <g id="line2d_23">
    <path d="M 73.832727 129.963789 
L 73.920781 155.429053 
L 74.008835 168.161684 
L 74.096889 244.557474 
L 74.184943 282.755368 
L 74.272997 270.022737 
L 74.36105 270.022737 
L 74.449104 270.022737 
L 74.537158 270.022737 
L 74.625212 270.022737 
L 74.713266 270.022737 
L 74.80132 270.022737 
L 74.889373 282.755368 
L 74.977427 270.022737 
L 75.065481 270.022737 
L 75.153535 270.022737 
L 75.241589 270.022737 
L 75.329643 257.290105 
L 75.417697 270.022737 
L 75.50575 270.022737 
L 75.593804 270.022737 
L 75.681858 270.022737 
L 75.769912 270.022737 
L 75.857966 270.022737 
L 75.94602 282.755368 
L 76.034074 282.755368 
L 76.122127 295.488 
" clip-path="url(#p3f2914d964)" style="fill: none; stroke: #ff1493; stroke-width: 1.5; stroke-linecap: square"/>
   </g>
   <g id="line2d_24">
    <path d="M 73.832727 142.696421 
L 73.920781 142.696421 
L 74.008835 117.231158 
L 74.096889 129.963789 
L 74.184943 117.231158 
L 74.272997 129.963789 
L 74.36105 117.231158 
L 74.537158 129.963789 
L 74.713266 129.963789 
L 74.889373 117.231158 
L 74.977427 129.963789 
L 75.153535 117.231158 
L 75.241589 129.963789 
L 75.417697 117.231158 
L 75.681858 142.696421 
L 75.94602 142.696421 
L 76.122127 129.963789 
L 76.298235 142.696421 
L 76.386289 142.696421 
L 76.474343 129.963789 
L 76.562397 142.696421 
L 76.65045 129.963789 
L 76.738504 142.696421 
L 76.914612 129.963789 
L 77.266827 129.963789 
L 77.442935 117.231158 
L 91.443497 117.231158 
L 91.443497 117.231158 
" clip-path="url(#p3f2914d964)" style="fill: none; stroke: #cd853f; stroke-width: 1.5; stroke-linecap: square"/>
   </g>
   <g id="line2d_25">
    <path d="M 73.832727 257.290105 
L 75.153535 257.290105 
L 75.329643 270.022737 
L 75.50575 257.290105 
L 75.681858 270.022737 
L 75.857966 257.290105 
L 75.94602 257.290105 
L 76.034074 270.022737 
L 76.210181 257.290105 
L 76.386289 257.290105 
L 76.562397 270.022737 
L 76.65045 270.022737 
L 76.826558 257.290105 
L 76.914612 257.290105 
L 77.09072 270.022737 
L 77.178774 257.290105 
L 77.266827 270.022737 
L 77.442935 257.290105 
L 77.530989 257.290105 
L 77.619043 270.022737 
L 77.795151 257.290105 
L 77.883204 270.022737 
L 78.059312 257.290105 
L 78.851797 257.290105 
L 78.939851 270.022737 
L 79.204012 244.557474 
L 79.38012 257.290105 
L 80.788981 257.290105 
L 80.877035 270.022737 
L 81.053143 257.290105 
L 82.109789 257.290105 
L 82.197843 270.022737 
L 82.373951 257.290105 
L 82.550058 257.290105 
L 82.638112 244.557474 
L 82.81422 270.022737 
L 82.990328 257.290105 
L 83.694758 257.290105 
L 83.782812 244.557474 
L 83.95892 257.290105 
L 84.751405 257.290105 
L 84.839459 270.022737 
L 85.015566 257.290105 
L 86.336374 257.290105 
L 86.424428 270.022737 
L 86.600536 257.290105 
L 86.776643 270.022737 
L 86.864697 270.022737 
L 87.040805 257.290105 
L 87.39302 257.290105 
L 87.39302 257.290105 
" clip-path="url(#p3f2914d964)" style="fill: none; stroke: #ff4500; stroke-width: 1.5; stroke-linecap: square"/>
   </g>
   <g id="line2d_26">
    <path d="M 73.832727 180.894316 
L 73.920781 206.359579 
L 74.008835 231.824842 
L 74.096889 257.290105 
L 74.184943 270.022737 
L 74.272997 270.022737 
L 74.36105 270.022737 
L 74.449104 270.022737 
L 74.537158 270.022737 
L 74.625212 270.022737 
L 74.713266 270.022737 
L 74.80132 270.022737 
L 74.889373 270.022737 
L 74.977427 270.022737 
L 75.065481 270.022737 
L 75.153535 270.022737 
L 75.241589 270.022737 
L 75.329643 282.755368 
L 75.417697 270.022737 
L 75.50575 270.022737 
L 75.593804 270.022737 
L 75.681858 270.022737 
L 75.769912 257.290105 
L 75.857966 270.022737 
L 75.94602 270.022737 
L 76.034074 270.022737 
L 76.122127 270.022737 
L 76.210181 257.290105 
L 76.298235 257.290105 
L 76.386289 270.022737 
L 76.474343 257.290105 
L 76.562397 270.022737 
L 76.65045 270.022737 
L 76.738504 270.022737 
L 76.826558 257.290105 
L 76.914612 257.290105 
L 77.002666 257.290105 
L 77.09072 257.290105 
L 77.178774 257.290105 
L 77.266827 257.290105 
L 77.354881 257.290105 
L 77.442935 257.290105 
L 77.530989 257.290105 
L 77.619043 257.290105 
L 77.707097 257.290105 
L 77.795151 270.022737 
L 77.883204 270.022737 
L 77.971258 270.022737 
L 78.059312 257.290105 
L 78.147366 270.022737 
L 78.23542 257.290105 
L 78.323474 270.022737 
L 78.411527 270.022737 
L 78.499581 282.755368 
L 78.587635 257.290105 
L 78.675689 257.290105 
L 78.763743 257.290105 
L 78.851797 257.290105 
L 78.939851 257.290105 
L 79.027904 257.290105 
L 79.115958 257.290105 
L 79.204012 257.290105 
L 79.292066 257.290105 
L 79.38012 257.290105 
L 79.468174 257.290105 
L 79.556228 257.290105 
L 79.644281 257.290105 
L 79.732335 257.290105 
L 79.820389 257.290105 
L 79.908443 257.290105 
L 79.996497 257.290105 
L 80.084551 257.290105 
L 80.172604 257.290105 
L 80.260658 257.290105 
L 80.348712 257.290105 
L 80.436766 257.290105 
" clip-path="url(#p3f2914d964)" style="fill: none; stroke: #ffd700; stroke-width: 1.5; stroke-linecap: square"/>
   </g>
   <g id="line2d_27">
    <path d="M 73.832727 129.963789 
L 74.272997 206.359579 
L 74.36105 168.161684 
L 74.449104 193.626947 
L 74.537158 180.894316 
L 74.625212 231.824842 
L 74.713266 219.092211 
L 74.889373 257.290105 
L 74.977427 257.290105 
L 75.065481 231.824842 
L 75.241589 270.022737 
L 75.417697 257.290105 
L 75.593804 270.022737 
L 75.857966 270.022737 
L 75.94602 257.290105 
L 76.034074 270.022737 
L 76.122127 244.557474 
L 76.298235 257.290105 
L 76.474343 257.290105 
L 76.562397 270.022737 
L 76.65045 257.290105 
L 76.738504 270.022737 
L 76.826558 257.290105 
L 77.002666 270.022737 
L 77.09072 257.290105 
L 77.266827 270.022737 
L 77.442935 270.022737 
L 77.530989 282.755368 
L 77.707097 270.022737 
L 77.883204 270.022737 
L 77.971258 257.290105 
L 78.147366 270.022737 
L 78.23542 257.290105 
L 78.411527 270.022737 
L 78.499581 270.022737 
L 78.675689 257.290105 
L 79.115958 257.290105 
L 79.292066 270.022737 
L 79.468174 270.022737 
L 79.556228 282.755368 
L 79.644281 270.022737 
L 79.732335 282.755368 
L 79.908443 257.290105 
L 79.996497 270.022737 
L 80.172604 257.290105 
L 80.260658 270.022737 
L 80.436766 257.290105 
L 80.965089 257.290105 
L 81.053143 270.022737 
L 81.141197 257.290105 
L 81.229251 270.022737 
L 81.317305 257.290105 
L 81.405358 282.755368 
L 81.493412 257.290105 
L 81.66952 270.022737 
L 81.845628 244.557474 
L 82.109789 270.022737 
L 82.197843 270.022737 
L 82.373951 257.290105 
L 82.902274 257.290105 
L 82.990328 270.022737 
L 83.166435 257.290105 
L 83.342543 270.022737 
L 83.430597 257.290105 
L 83.518651 270.022737 
L 83.606705 257.290105 
L 83.782812 270.022737 
L 83.870866 257.290105 
L 83.95892 270.022737 
L 84.135028 257.290105 
L 84.311135 270.022737 
L 84.487243 270.022737 
L 84.575297 257.290105 
L 84.751405 270.022737 
L 84.927512 270.022737 
L 85.10362 295.488 
L 85.10362 295.488 
" clip-path="url(#p3f2914d964)" style="fill: none; stroke: #708090; stroke-width: 1.5; stroke-linecap: square"/>
   </g>
   <g id="line2d_28">
    <path d="M 73.832727 129.963789 
L 74.008835 142.696421 
L 74.096889 142.696421 
L 74.272997 155.429053 
L 74.449104 155.429053 
L 74.713266 193.626947 
L 74.80132 180.894316 
L 75.065481 231.824842 
L 75.153535 244.557474 
L 75.241589 206.359579 
L 75.329643 219.092211 
L 75.417697 206.359579 
L 75.769912 244.557474 
L 75.857966 231.824842 
L 76.122127 257.290105 
L 76.474343 257.290105 
L 76.562397 244.557474 
L 76.738504 257.290105 
L 77.09072 257.290105 
L 77.178774 270.022737 
L 77.354881 257.290105 
L 77.971258 257.290105 
L 78.147366 270.022737 
L 78.23542 270.022737 
L 78.411527 257.290105 
L 78.587635 270.022737 
L 78.763743 257.290105 
L 78.939851 270.022737 
L 79.204012 270.022737 
L 79.292066 257.290105 
L 79.38012 270.022737 
L 79.468174 257.290105 
L 79.644281 270.022737 
L 79.820389 270.022737 
L 79.908443 257.290105 
L 80.084551 270.022737 
L 80.172604 257.290105 
L 80.348712 270.022737 
L 80.788981 270.022737 
L 80.877035 282.755368 
L 81.053143 270.022737 
L 81.66952 270.022737 
L 81.845628 282.755368 
L 82.021735 270.022737 
L 82.109789 270.022737 
L 82.197843 257.290105 
L 82.285897 282.755368 
L 82.462005 270.022737 
L 82.990328 270.022737 
L 83.078382 282.755368 
L 83.254489 270.022737 
L 83.342543 270.022737 
L 83.430597 282.755368 
L 83.606705 270.022737 
L 83.694758 270.022737 
L 83.782812 282.755368 
L 83.95892 270.022737 
L 84.046974 282.755368 
L 84.223082 270.022737 
L 84.487243 270.022737 
L 84.575297 282.755368 
L 84.663351 270.022737 
L 84.751405 282.755368 
L 84.927512 270.022737 
L 85.015566 282.755368 
L 85.191674 270.022737 
L 85.808051 270.022737 
L 85.896105 282.755368 
L 86.072212 270.022737 
L 86.160266 270.022737 
L 86.24832 282.755368 
L 86.336374 270.022737 
L 86.424428 282.755368 
L 86.512482 270.022737 
L 86.688589 282.755368 
L 86.776643 270.022737 
L 86.864697 282.755368 
L 87.040805 270.022737 
L 87.39302 270.022737 
L 87.481074 282.755368 
L 87.657182 270.022737 
L 89.242151 270.022737 
L 89.330205 282.755368 
L 89.506313 270.022737 
L 89.858528 270.022737 
L 89.946582 282.755368 
L 90.12269 270.022737 
L 91.443497 270.022737 
L 91.443497 270.022737 
" clip-path="url(#p3f2914d964)" style="fill: none; stroke: #ff1493; stroke-width: 1.5; stroke-linecap: square"/>
   </g>
   <g id="line2d_29">
    <path d="M 73.832727 180.894316 
L 73.920781 168.161684 
L 74.096889 231.824842 
L 74.449104 270.022737 
L 91.443497 270.022737 
L 91.443497 270.022737 
" clip-path="url(#p3f2914d964)" style="fill: none; stroke: #cd853f; stroke-width: 1.5; stroke-linecap: square"/>
   </g>
   <g id="line2d_30">
    <path d="M 73.832727 142.696421 
L 73.920781 155.429053 
L 74.008835 168.161684 
L 74.096889 231.824842 
L 74.184943 257.290105 
L 74.272997 270.022737 
L 74.36105 270.022737 
L 74.449104 270.022737 
L 74.537158 270.022737 
L 74.625212 270.022737 
L 74.713266 270.022737 
L 74.80132 270.022737 
L 74.889373 270.022737 
L 74.977427 270.022737 
L 75.065481 270.022737 
L 75.153535 270.022737 
L 75.241589 270.022737 
L 75.329643 270.022737 
L 75.417697 282.755368 
L 75.50575 282.755368 
L 75.593804 282.755368 
L 75.681858 282.755368 
L 75.769912 282.755368 
L 75.857966 270.022737 
L 75.94602 270.022737 
L 76.034074 270.022737 
L 76.122127 282.755368 
L 76.210181 282.755368 
L 76.298235 270.022737 
L 76.386289 270.022737 
L 76.474343 270.022737 
L 76.562397 270.022737 
L 76.65045 270.022737 
L 76.738504 270.022737 
L 76.826558 270.022737 
L 76.914612 282.755368 
L 77.002666 282.755368 
L 77.09072 282.755368 
L 77.178774 270.022737 
L 77.266827 282.755368 
L 77.354881 282.755368 
L 77.442935 282.755368 
" clip-path="url(#p3f2914d964)" style="fill: none; stroke: #cd853f; stroke-width: 1.5; stroke-linecap: square"/>
   </g>
   <g id="line2d_31">
    <path d="M 73.832727 53.568 
L 73.920781 53.568 
L 74.008835 53.568 
L 74.096889 53.568 
L 74.184943 53.568 
L 74.272997 53.568 
L 74.36105 53.568 
L 74.449104 53.568 
L 74.537158 53.568 
L 74.625212 53.568 
L 74.713266 53.568 
L 74.80132 53.568 
L 74.889373 53.568 
L 74.977427 53.568 
L 75.065481 53.568 
L 75.153535 53.568 
L 75.241589 53.568 
L 75.329643 53.568 
L 75.417697 53.568 
L 75.50575 53.568 
L 75.593804 53.568 
L 75.681858 53.568 
L 75.769912 53.568 
L 75.857966 53.568 
L 75.94602 53.568 
L 76.034074 53.568 
L 76.122127 53.568 
L 76.210181 53.568 
L 76.298235 53.568 
L 76.386289 53.568 
L 76.474343 53.568 
L 76.562397 53.568 
L 76.65045 53.568 
L 76.738504 53.568 
L 76.826558 53.568 
L 76.914612 53.568 
L 77.002666 53.568 
L 77.09072 53.568 
L 77.178774 53.568 
L 77.266827 53.568 
L 77.354881 53.568 
L 77.442935 53.568 
L 77.530989 53.568 
L 77.619043 53.568 
L 77.707097 53.568 
L 77.795151 53.568 
L 77.883204 53.568 
L 77.971258 53.568 
L 78.059312 53.568 
L 78.147366 53.568 
L 78.23542 53.568 
L 78.323474 53.568 
L 78.411527 53.568 
L 78.499581 53.568 
L 78.587635 53.568 
L 78.675689 53.568 
L 78.763743 53.568 
L 78.851797 53.568 
L 78.939851 53.568 
L 79.027904 53.568 
L 79.115958 53.568 
L 79.204012 53.568 
L 79.292066 53.568 
L 79.38012 53.568 
L 79.468174 53.568 
L 79.556228 53.568 
L 79.644281 53.568 
L 79.732335 53.568 
L 79.820389 53.568 
L 79.908443 53.568 
L 79.996497 53.568 
L 80.084551 53.568 
" clip-path="url(#p3f2914d964)" style="fill: none; stroke: #000000; stroke-width: 1.5; stroke-linecap: square"/>
   </g>
   <g id="patch_3">
    <path d="M 57.6 307.584 
L 57.6 41.472 
" style="fill: none; stroke: #000000; stroke-width: 0.8; stroke-linejoin: miter; stroke-linecap: square"/>
   </g>
   <g id="patch_4">
    <path d="M 414.72 307.584 
L 414.72 41.472 
" style="fill: none; stroke: #000000; stroke-width: 0.8; stroke-linejoin: miter; stroke-linecap: square"/>
   </g>
   <g id="patch_5">
    <path d="M 57.6 307.584 
L 414.72 307.584 
" style="fill: none; stroke: #000000; stroke-width: 0.8; stroke-linejoin: miter; stroke-linecap: square"/>
   </g>
   <g id="patch_6">
    <path d="M 57.6 41.472 
L 414.72 41.472 
" style="fill: none; stroke: #000000; stroke-width: 0.8; stroke-linejoin: miter; stroke-linecap: square"/>
   </g>
   <g id="text_19">
    <!-- Error Progression in Example strings/1-58-1.pl -->
    <g transform="translate(98.3175 35.472)scale(0.12 -0.12)">
     <defs>
      <path id="DejaVuSans-20" transform="scale(0.015625)"/>
      <path id="DejaVuSans-50" d="M 1259 4147 
L 1259 2394 
L 2053 2394 
Q 2494 2394 2734 2622 
Q 2975 2850 2975 3272 
Q 2975 3691 2734 3919 
Q 2494 4147 2053 4147 
L 1259 4147 
z
M 628 4666 
L 2053 4666 
Q 2838 4666 3239 4311 
Q 3641 3956 3641 3272 
Q 3641 2581 3239 2228 
Q 2838 1875 2053 1875 
L 1259 1875 
L 1259 0 
L 628 0 
L 628 4666 
z
" transform="scale(0.015625)"/>
      <path id="DejaVuSans-67" d="M 2906 1791 
Q 2906 2416 2648 2759 
Q 2391 3103 1925 3103 
Q 1463 3103 1205 2759 
Q 947 2416 947 1791 
Q 947 1169 1205 825 
Q 1463 481 1925 481 
Q 2391 481 2648 825 
Q 2906 1169 2906 1791 
z
M 3481 434 
Q 3481 -459 3084 -895 
Q 2688 -1331 1869 -1331 
Q 1566 -1331 1297 -1286 
Q 1028 -1241 775 -1147 
L 775 -588 
Q 1028 -725 1275 -790 
Q 1522 -856 1778 -856 
Q 2344 -856 2625 -561 
Q 2906 -266 2906 331 
L 2906 616 
Q 2728 306 2450 153 
Q 2172 0 1784 0 
Q 1141 0 747 490 
Q 353 981 353 1791 
Q 353 2603 747 3093 
Q 1141 3584 1784 3584 
Q 2172 3584 2450 3431 
Q 2728 3278 2906 2969 
L 2906 3500 
L 3481 3500 
L 3481 434 
z
" transform="scale(0.015625)"/>
      <path id="DejaVuSans-73" d="M 2834 3397 
L 2834 2853 
Q 2591 2978 2328 3040 
Q 2066 3103 1784 3103 
Q 1356 3103 1142 2972 
Q 928 2841 928 2578 
Q 928 2378 1081 2264 
Q 1234 2150 1697 2047 
L 1894 2003 
Q 2506 1872 2764 1633 
Q 3022 1394 3022 966 
Q 3022 478 2636 193 
Q 2250 -91 1575 -91 
Q 1294 -91 989 -36 
Q 684 19 347 128 
L 347 722 
Q 666 556 975 473 
Q 1284 391 1588 391 
Q 1994 391 2212 530 
Q 2431 669 2431 922 
Q 2431 1156 2273 1281 
Q 2116 1406 1581 1522 
L 1381 1569 
Q 847 1681 609 1914 
Q 372 2147 372 2553 
Q 372 3047 722 3315 
Q 1072 3584 1716 3584 
Q 2034 3584 2315 3537 
Q 2597 3491 2834 3397 
z
" transform="scale(0.015625)"/>
      <path id="DejaVuSans-78" d="M 3513 3500 
L 2247 1797 
L 3578 0 
L 2900 0 
L 1881 1375 
L 863 0 
L 184 0 
L 1544 1831 
L 300 3500 
L 978 3500 
L 1906 2253 
L 2834 3500 
L 3513 3500 
z
" transform="scale(0.015625)"/>
      <path id="DejaVuSans-6d" d="M 3328 2828 
Q 3544 3216 3844 3400 
Q 4144 3584 4550 3584 
Q 5097 3584 5394 3201 
Q 5691 2819 5691 2113 
L 5691 0 
L 5113 0 
L 5113 2094 
Q 5113 2597 4934 2840 
Q 4756 3084 4391 3084 
Q 3944 3084 3684 2787 
Q 3425 2491 3425 1978 
L 3425 0 
L 2847 0 
L 2847 2094 
Q 2847 2600 2669 2842 
Q 2491 3084 2119 3084 
Q 1678 3084 1418 2786 
Q 1159 2488 1159 1978 
L 1159 0 
L 581 0 
L 581 3500 
L 1159 3500 
L 1159 2956 
Q 1356 3278 1631 3431 
Q 1906 3584 2284 3584 
Q 2666 3584 2933 3390 
Q 3200 3197 3328 2828 
z
" transform="scale(0.015625)"/>
      <path id="DejaVuSans-70" d="M 1159 525 
L 1159 -1331 
L 581 -1331 
L 581 3500 
L 1159 3500 
L 1159 2969 
Q 1341 3281 1617 3432 
Q 1894 3584 2278 3584 
Q 2916 3584 3314 3078 
Q 3713 2572 3713 1747 
Q 3713 922 3314 415 
Q 2916 -91 2278 -91 
Q 1894 -91 1617 61 
Q 1341 213 1159 525 
z
M 3116 1747 
Q 3116 2381 2855 2742 
Q 2594 3103 2138 3103 
Q 1681 3103 1420 2742 
Q 1159 2381 1159 1747 
Q 1159 1113 1420 752 
Q 1681 391 2138 391 
Q 2594 391 2855 752 
Q 3116 1113 3116 1747 
z
" transform="scale(0.015625)"/>
      <path id="DejaVuSans-6c" d="M 603 4863 
L 1178 4863 
L 1178 0 
L 603 0 
L 603 4863 
z
" transform="scale(0.015625)"/>
      <path id="DejaVuSans-2f" d="M 1625 4666 
L 2156 4666 
L 531 -594 
L 0 -594 
L 1625 4666 
z
" transform="scale(0.015625)"/>
      <path id="DejaVuSans-2d" d="M 313 2009 
L 1997 2009 
L 1997 1497 
L 313 1497 
L 313 2009 
z
" transform="scale(0.015625)"/>
      <path id="DejaVuSans-38" d="M 2034 2216 
Q 1584 2216 1326 1975 
Q 1069 1734 1069 1313 
Q 1069 891 1326 650 
Q 1584 409 2034 409 
Q 2484 409 2743 651 
Q 3003 894 3003 1313 
Q 3003 1734 2745 1975 
Q 2488 2216 2034 2216 
z
M 1403 2484 
Q 997 2584 770 2862 
Q 544 3141 544 3541 
Q 544 4100 942 4425 
Q 1341 4750 2034 4750 
Q 2731 4750 3128 4425 
Q 3525 4100 3525 3541 
Q 3525 3141 3298 2862 
Q 3072 2584 2669 2484 
Q 3125 2378 3379 2068 
Q 3634 1759 3634 1313 
Q 3634 634 3220 271 
Q 2806 -91 2034 -91 
Q 1263 -91 848 271 
Q 434 634 434 1313 
Q 434 1759 690 2068 
Q 947 2378 1403 2484 
z
M 1172 3481 
Q 1172 3119 1398 2916 
Q 1625 2713 2034 2713 
Q 2441 2713 2670 2916 
Q 2900 3119 2900 3481 
Q 2900 3844 2670 4047 
Q 2441 4250 2034 4250 
Q 1625 4250 1398 4047 
Q 1172 3844 1172 3481 
z
" transform="scale(0.015625)"/>
     </defs>
     <use xlink:href="#DejaVuSans-45"/>
     <use xlink:href="#DejaVuSans-72" x="63.183594"/>
     <use xlink:href="#DejaVuSans-72" x="102.546875"/>
     <use xlink:href="#DejaVuSans-6f" x="141.410156"/>
     <use xlink:href="#DejaVuSans-72" x="202.591797"/>
     <use xlink:href="#DejaVuSans-20" x="243.705078"/>
     <use xlink:href="#DejaVuSans-50" x="275.492188"/>
     <use xlink:href="#DejaVuSans-72" x="334.044922"/>
     <use xlink:href="#DejaVuSans-6f" x="372.908203"/>
     <use xlink:href="#DejaVuSans-67" x="434.089844"/>
     <use xlink:href="#DejaVuSans-72" x="497.566406"/>
     <use xlink:href="#DejaVuSans-65" x="536.429688"/>
     <use xlink:href="#DejaVuSans-73" x="597.953125"/>
     <use xlink:href="#DejaVuSans-73" x="650.052734"/>
     <use xlink:href="#DejaVuSans-69" x="702.152344"/>
     <use xlink:href="#DejaVuSans-6f" x="729.935547"/>
     <use xlink:href="#DejaVuSans-6e" x="791.117188"/>
     <use xlink:href="#DejaVuSans-20" x="854.496094"/>
     <use xlink:href="#DejaVuSans-69" x="886.283203"/>
     <use xlink:href="#DejaVuSans-6e" x="914.066406"/>
     <use xlink:href="#DejaVuSans-20" x="977.445312"/>
     <use xlink:href="#DejaVuSans-45" x="1009.232422"/>
     <use xlink:href="#DejaVuSans-78" x="1072.416016"/>
     <use xlink:href="#DejaVuSans-61" x="1131.595703"/>
     <use xlink:href="#DejaVuSans-6d" x="1192.875"/>
     <use xlink:href="#DejaVuSans-70" x="1290.287109"/>
     <use xlink:href="#DejaVuSans-6c" x="1353.763672"/>
     <use xlink:href="#DejaVuSans-65" x="1381.546875"/>
     <use xlink:href="#DejaVuSans-20" x="1443.070312"/>
     <use xlink:href="#DejaVuSans-73" x="1474.857422"/>
     <use xlink:href="#DejaVuSans-74" x="1526.957031"/>
     <use xlink:href="#DejaVuSans-72" x="1566.166016"/>
     <use xlink:href="#DejaVuSans-69" x="1607.279297"/>
     <use xlink:href="#DejaVuSans-6e" x="1635.0625"/>
     <use xlink:href="#DejaVuSans-67" x="1698.441406"/>
     <use xlink:href="#DejaVuSans-73" x="1761.917969"/>
     <use xlink:href="#DejaVuSans-2f" x="1814.017578"/>
     <use xlink:href="#DejaVuSans-31" x="1847.708984"/>
     <use xlink:href="#DejaVuSans-2d" x="1911.332031"/>
     <use xlink:href="#DejaVuSans-35" x="1947.416016"/>
     <use xlink:href="#DejaVuSans-38" x="2011.039062"/>
     <use xlink:href="#DejaVuSans-2d" x="2074.662109"/>
     <use xlink:href="#DejaVuSans-31" x="2110.746094"/>
     <use xlink:href="#DejaVuSans-2e" x="2174.369141"/>
     <use xlink:href="#DejaVuSans-70" x="2206.15625"/>
     <use xlink:href="#DejaVuSans-6c" x="2269.632812"/>
    </g>
   </g>
   <g id="legend_1">
    <g id="patch_7">
     <path d="M 286.63875 269.643875 
L 407.72 269.643875 
Q 409.72 269.643875 409.72 267.643875 
L 409.72 48.472 
Q 409.72 46.472 407.72 46.472 
L 286.63875 46.472 
Q 284.63875 46.472 284.63875 48.472 
L 284.63875 267.643875 
Q 284.63875 269.643875 286.63875 269.643875 
z
" style="fill: #ffffff; opacity: 0.8; stroke: #cccccc; stroke-linejoin: miter"/>
    </g>
    <g id="line2d_32">
     <path d="M 288.63875 54.570437 
L 298.63875 54.570437 
L 308.63875 54.570437 
" style="fill: none; stroke: #191970; stroke-width: 1.5; stroke-linecap: square"/>
    </g>
    <g id="text_20">
     <!-- Original VanillaGP -->
     <g transform="translate(316.63875 58.070437)scale(0.1 -0.1)">
      <defs>
       <path id="DejaVuSans-4f" d="M 2522 4238 
Q 1834 4238 1429 3725 
Q 1025 3213 1025 2328 
Q 1025 1447 1429 934 
Q 1834 422 2522 422 
Q 3209 422 3611 934 
Q 4013 1447 4013 2328 
Q 4013 3213 3611 3725 
Q 3209 4238 2522 4238 
z
M 2522 4750 
Q 3503 4750 4090 4092 
Q 4678 3434 4678 2328 
Q 4678 1225 4090 567 
Q 3503 -91 2522 -91 
Q 1538 -91 948 565 
Q 359 1222 359 2328 
Q 359 3434 948 4092 
Q 1538 4750 2522 4750 
z
" transform="scale(0.015625)"/>
       <path id="DejaVuSans-56" d="M 1831 0 
L 50 4666 
L 709 4666 
L 2188 738 
L 3669 4666 
L 4325 4666 
L 2547 0 
L 1831 0 
z
" transform="scale(0.015625)"/>
       <path id="DejaVuSans-47" d="M 3809 666 
L 3809 1919 
L 2778 1919 
L 2778 2438 
L 4434 2438 
L 4434 434 
Q 4069 175 3628 42 
Q 3188 -91 2688 -91 
Q 1594 -91 976 548 
Q 359 1188 359 2328 
Q 359 3472 976 4111 
Q 1594 4750 2688 4750 
Q 3144 4750 3555 4637 
Q 3966 4525 4313 4306 
L 4313 3634 
Q 3963 3931 3569 4081 
Q 3175 4231 2741 4231 
Q 1884 4231 1454 3753 
Q 1025 3275 1025 2328 
Q 1025 1384 1454 906 
Q 1884 428 2741 428 
Q 3075 428 3337 486 
Q 3600 544 3809 666 
z
" transform="scale(0.015625)"/>
      </defs>
      <use xlink:href="#DejaVuSans-4f"/>
      <use xlink:href="#DejaVuSans-72" x="78.710938"/>
      <use xlink:href="#DejaVuSans-69" x="119.824219"/>
      <use xlink:href="#DejaVuSans-67" x="147.607422"/>
      <use xlink:href="#DejaVuSans-69" x="211.083984"/>
      <use xlink:href="#DejaVuSans-6e" x="238.867188"/>
      <use xlink:href="#DejaVuSans-61" x="302.246094"/>
      <use xlink:href="#DejaVuSans-6c" x="363.525391"/>
      <use xlink:href="#DejaVuSans-20" x="391.308594"/>
      <use xlink:href="#DejaVuSans-56" x="423.095703"/>
      <use xlink:href="#DejaVuSans-61" x="483.753906"/>
      <use xlink:href="#DejaVuSans-6e" x="545.033203"/>
      <use xlink:href="#DejaVuSans-69" x="608.412109"/>
      <use xlink:href="#DejaVuSans-6c" x="636.195312"/>
      <use xlink:href="#DejaVuSans-6c" x="663.978516"/>
      <use xlink:href="#DejaVuSans-61" x="691.761719"/>
      <use xlink:href="#DejaVuSans-47" x="753.041016"/>
      <use xlink:href="#DejaVuSans-50" x="830.53125"/>
     </g>
    </g>
    <g id="line2d_33">
     <path d="M 288.63875 69.248562 
L 298.63875 69.248562 
L 308.63875 69.248562 
" style="fill: none; stroke: #3cb371; stroke-width: 1.5; stroke-linecap: square"/>
    </g>
    <g id="text_21">
     <!-- VanillaGP -->
     <g transform="translate(316.63875 72.748562)scale(0.1 -0.1)">
      <use xlink:href="#DejaVuSans-56"/>
      <use xlink:href="#DejaVuSans-61" x="60.658203"/>
      <use xlink:href="#DejaVuSans-6e" x="121.9375"/>
      <use xlink:href="#DejaVuSans-69" x="185.316406"/>
      <use xlink:href="#DejaVuSans-6c" x="213.099609"/>
      <use xlink:href="#DejaVuSans-6c" x="240.882812"/>
      <use xlink:href="#DejaVuSans-61" x="268.666016"/>
      <use xlink:href="#DejaVuSans-47" x="329.945312"/>
      <use xlink:href="#DejaVuSans-50" x="407.435547"/>
     </g>
    </g>
    <g id="line2d_34">
     <path d="M 288.63875 83.926688 
L 298.63875 83.926688 
L 308.63875 83.926688 
" style="fill: none; stroke: #9370db; stroke-width: 1.5; stroke-linecap: square"/>
    </g>
    <g id="text_22">
     <!-- Combination 1 -->
     <g transform="translate(316.63875 87.426688)scale(0.1 -0.1)">
      <defs>
       <path id="DejaVuSans-43" d="M 4122 4306 
L 4122 3641 
Q 3803 3938 3442 4084 
Q 3081 4231 2675 4231 
Q 1875 4231 1450 3742 
Q 1025 3253 1025 2328 
Q 1025 1406 1450 917 
Q 1875 428 2675 428 
Q 3081 428 3442 575 
Q 3803 722 4122 1019 
L 4122 359 
Q 3791 134 3420 21 
Q 3050 -91 2638 -91 
Q 1578 -91 968 557 
Q 359 1206 359 2328 
Q 359 3453 968 4101 
Q 1578 4750 2638 4750 
Q 3056 4750 3426 4639 
Q 3797 4528 4122 4306 
z
" transform="scale(0.015625)"/>
       <path id="DejaVuSans-62" d="M 3116 1747 
Q 3116 2381 2855 2742 
Q 2594 3103 2138 3103 
Q 1681 3103 1420 2742 
Q 1159 2381 1159 1747 
Q 1159 1113 1420 752 
Q 1681 391 2138 391 
Q 2594 391 2855 752 
Q 3116 1113 3116 1747 
z
M 1159 2969 
Q 1341 3281 1617 3432 
Q 1894 3584 2278 3584 
Q 2916 3584 3314 3078 
Q 3713 2572 3713 1747 
Q 3713 922 3314 415 
Q 2916 -91 2278 -91 
Q 1894 -91 1617 61 
Q 1341 213 1159 525 
L 1159 0 
L 581 0 
L 581 4863 
L 1159 4863 
L 1159 2969 
z
" transform="scale(0.015625)"/>
      </defs>
      <use xlink:href="#DejaVuSans-43"/>
      <use xlink:href="#DejaVuSans-6f" x="69.824219"/>
      <use xlink:href="#DejaVuSans-6d" x="131.005859"/>
      <use xlink:href="#DejaVuSans-62" x="228.417969"/>
      <use xlink:href="#DejaVuSans-69" x="291.894531"/>
      <use xlink:href="#DejaVuSans-6e" x="319.677734"/>
      <use xlink:href="#DejaVuSans-61" x="383.056641"/>
      <use xlink:href="#DejaVuSans-74" x="444.335938"/>
      <use xlink:href="#DejaVuSans-69" x="483.544922"/>
      <use xlink:href="#DejaVuSans-6f" x="511.328125"/>
      <use xlink:href="#DejaVuSans-6e" x="572.509766"/>
      <use xlink:href="#DejaVuSans-20" x="635.888672"/>
      <use xlink:href="#DejaVuSans-31" x="667.675781"/>
     </g>
    </g>
    <g id="line2d_35">
     <path d="M 288.63875 98.604812 
L 298.63875 98.604812 
L 308.63875 98.604812 
" style="fill: none; stroke: #ff4500; stroke-width: 1.5; stroke-linecap: square"/>
    </g>
    <g id="text_23">
     <!-- Combination 2 -->
     <g transform="translate(316.63875 102.104812)scale(0.1 -0.1)">
      <use xlink:href="#DejaVuSans-43"/>
      <use xlink:href="#DejaVuSans-6f" x="69.824219"/>
      <use xlink:href="#DejaVuSans-6d" x="131.005859"/>
      <use xlink:href="#DejaVuSans-62" x="228.417969"/>
      <use xlink:href="#DejaVuSans-69" x="291.894531"/>
      <use xlink:href="#DejaVuSans-6e" x="319.677734"/>
      <use xlink:href="#DejaVuSans-61" x="383.056641"/>
      <use xlink:href="#DejaVuSans-74" x="444.335938"/>
      <use xlink:href="#DejaVuSans-69" x="483.544922"/>
      <use xlink:href="#DejaVuSans-6f" x="511.328125"/>
      <use xlink:href="#DejaVuSans-6e" x="572.509766"/>
      <use xlink:href="#DejaVuSans-20" x="635.888672"/>
      <use xlink:href="#DejaVuSans-32" x="667.675781"/>
     </g>
    </g>
    <g id="line2d_36">
     <path d="M 288.63875 113.282938 
L 298.63875 113.282938 
L 308.63875 113.282938 
" style="fill: none; stroke: #ffd700; stroke-width: 1.5; stroke-linecap: square"/>
    </g>
    <g id="text_24">
     <!-- Combination 3 -->
     <g transform="translate(316.63875 116.782938)scale(0.1 -0.1)">
      <use xlink:href="#DejaVuSans-43"/>
      <use xlink:href="#DejaVuSans-6f" x="69.824219"/>
      <use xlink:href="#DejaVuSans-6d" x="131.005859"/>
      <use xlink:href="#DejaVuSans-62" x="228.417969"/>
      <use xlink:href="#DejaVuSans-69" x="291.894531"/>
      <use xlink:href="#DejaVuSans-6e" x="319.677734"/>
      <use xlink:href="#DejaVuSans-61" x="383.056641"/>
      <use xlink:href="#DejaVuSans-74" x="444.335938"/>
      <use xlink:href="#DejaVuSans-69" x="483.544922"/>
      <use xlink:href="#DejaVuSans-6f" x="511.328125"/>
      <use xlink:href="#DejaVuSans-6e" x="572.509766"/>
      <use xlink:href="#DejaVuSans-20" x="635.888672"/>
      <use xlink:href="#DejaVuSans-33" x="667.675781"/>
     </g>
    </g>
    <g id="line2d_37">
     <path d="M 288.63875 127.961062 
L 298.63875 127.961062 
L 308.63875 127.961062 
" style="fill: none; stroke: #708090; stroke-width: 1.5; stroke-linecap: square"/>
    </g>
    <g id="text_25">
     <!-- Combination 4 -->
     <g transform="translate(316.63875 131.461062)scale(0.1 -0.1)">
      <defs>
       <path id="DejaVuSans-34" d="M 2419 4116 
L 825 1625 
L 2419 1625 
L 2419 4116 
z
M 2253 4666 
L 3047 4666 
L 3047 1625 
L 3713 1625 
L 3713 1100 
L 3047 1100 
L 3047 0 
L 2419 0 
L 2419 1100 
L 313 1100 
L 313 1709 
L 2253 4666 
z
" transform="scale(0.015625)"/>
      </defs>
      <use xlink:href="#DejaVuSans-43"/>
      <use xlink:href="#DejaVuSans-6f" x="69.824219"/>
      <use xlink:href="#DejaVuSans-6d" x="131.005859"/>
      <use xlink:href="#DejaVuSans-62" x="228.417969"/>
      <use xlink:href="#DejaVuSans-69" x="291.894531"/>
      <use xlink:href="#DejaVuSans-6e" x="319.677734"/>
      <use xlink:href="#DejaVuSans-61" x="383.056641"/>
      <use xlink:href="#DejaVuSans-74" x="444.335938"/>
      <use xlink:href="#DejaVuSans-69" x="483.544922"/>
      <use xlink:href="#DejaVuSans-6f" x="511.328125"/>
      <use xlink:href="#DejaVuSans-6e" x="572.509766"/>
      <use xlink:href="#DejaVuSans-20" x="635.888672"/>
      <use xlink:href="#DejaVuSans-34" x="667.675781"/>
     </g>
    </g>
    <g id="line2d_38">
     <path d="M 288.63875 142.639187 
L 298.63875 142.639187 
L 308.63875 142.639187 
" style="fill: none; stroke: #ff1493; stroke-width: 1.5; stroke-linecap: square"/>
    </g>
    <g id="text_26">
     <!-- Combination 5 -->
     <g transform="translate(316.63875 146.139187)scale(0.1 -0.1)">
      <use xlink:href="#DejaVuSans-43"/>
      <use xlink:href="#DejaVuSans-6f" x="69.824219"/>
      <use xlink:href="#DejaVuSans-6d" x="131.005859"/>
      <use xlink:href="#DejaVuSans-62" x="228.417969"/>
      <use xlink:href="#DejaVuSans-69" x="291.894531"/>
      <use xlink:href="#DejaVuSans-6e" x="319.677734"/>
      <use xlink:href="#DejaVuSans-61" x="383.056641"/>
      <use xlink:href="#DejaVuSans-74" x="444.335938"/>
      <use xlink:href="#DejaVuSans-69" x="483.544922"/>
      <use xlink:href="#DejaVuSans-6f" x="511.328125"/>
      <use xlink:href="#DejaVuSans-6e" x="572.509766"/>
      <use xlink:href="#DejaVuSans-20" x="635.888672"/>
      <use xlink:href="#DejaVuSans-35" x="667.675781"/>
     </g>
    </g>
    <g id="line2d_39">
     <path d="M 288.63875 157.317312 
L 298.63875 157.317312 
L 308.63875 157.317312 
" style="fill: none; stroke: #cd853f; stroke-width: 1.5; stroke-linecap: square"/>
    </g>
    <g id="text_27">
     <!-- Combination 6 -->
     <g transform="translate(316.63875 160.817312)scale(0.1 -0.1)">
      <defs>
       <path id="DejaVuSans-36" d="M 2113 2584 
Q 1688 2584 1439 2293 
Q 1191 2003 1191 1497 
Q 1191 994 1439 701 
Q 1688 409 2113 409 
Q 2538 409 2786 701 
Q 3034 994 3034 1497 
Q 3034 2003 2786 2293 
Q 2538 2584 2113 2584 
z
M 3366 4563 
L 3366 3988 
Q 3128 4100 2886 4159 
Q 2644 4219 2406 4219 
Q 1781 4219 1451 3797 
Q 1122 3375 1075 2522 
Q 1259 2794 1537 2939 
Q 1816 3084 2150 3084 
Q 2853 3084 3261 2657 
Q 3669 2231 3669 1497 
Q 3669 778 3244 343 
Q 2819 -91 2113 -91 
Q 1303 -91 875 529 
Q 447 1150 447 2328 
Q 447 3434 972 4092 
Q 1497 4750 2381 4750 
Q 2619 4750 2861 4703 
Q 3103 4656 3366 4563 
z
" transform="scale(0.015625)"/>
      </defs>
      <use xlink:href="#DejaVuSans-43"/>
      <use xlink:href="#DejaVuSans-6f" x="69.824219"/>
      <use xlink:href="#DejaVuSans-6d" x="131.005859"/>
      <use xlink:href="#DejaVuSans-62" x="228.417969"/>
      <use xlink:href="#DejaVuSans-69" x="291.894531"/>
      <use xlink:href="#DejaVuSans-6e" x="319.677734"/>
      <use xlink:href="#DejaVuSans-61" x="383.056641"/>
      <use xlink:href="#DejaVuSans-74" x="444.335938"/>
      <use xlink:href="#DejaVuSans-69" x="483.544922"/>
      <use xlink:href="#DejaVuSans-6f" x="511.328125"/>
      <use xlink:href="#DejaVuSans-6e" x="572.509766"/>
      <use xlink:href="#DejaVuSans-20" x="635.888672"/>
      <use xlink:href="#DejaVuSans-36" x="667.675781"/>
     </g>
    </g>
    <g id="line2d_40">
     <path d="M 288.63875 171.995437 
L 298.63875 171.995437 
L 308.63875 171.995437 
" style="fill: none; stroke: #ff4500; stroke-width: 1.5; stroke-linecap: square"/>
    </g>
    <g id="text_28">
     <!-- Combination 7 -->
     <g transform="translate(316.63875 175.495437)scale(0.1 -0.1)">
      <use xlink:href="#DejaVuSans-43"/>
      <use xlink:href="#DejaVuSans-6f" x="69.824219"/>
      <use xlink:href="#DejaVuSans-6d" x="131.005859"/>
      <use xlink:href="#DejaVuSans-62" x="228.417969"/>
      <use xlink:href="#DejaVuSans-69" x="291.894531"/>
      <use xlink:href="#DejaVuSans-6e" x="319.677734"/>
      <use xlink:href="#DejaVuSans-61" x="383.056641"/>
      <use xlink:href="#DejaVuSans-74" x="444.335938"/>
      <use xlink:href="#DejaVuSans-69" x="483.544922"/>
      <use xlink:href="#DejaVuSans-6f" x="511.328125"/>
      <use xlink:href="#DejaVuSans-6e" x="572.509766"/>
      <use xlink:href="#DejaVuSans-20" x="635.888672"/>
      <use xlink:href="#DejaVuSans-37" x="667.675781"/>
     </g>
    </g>
    <g id="line2d_41">
     <path d="M 288.63875 186.673562 
L 298.63875 186.673562 
L 308.63875 186.673562 
" style="fill: none; stroke: #ffd700; stroke-width: 1.5; stroke-linecap: square"/>
    </g>
    <g id="text_29">
     <!-- Combination 8 -->
     <g transform="translate(316.63875 190.173562)scale(0.1 -0.1)">
      <use xlink:href="#DejaVuSans-43"/>
      <use xlink:href="#DejaVuSans-6f" x="69.824219"/>
      <use xlink:href="#DejaVuSans-6d" x="131.005859"/>
      <use xlink:href="#DejaVuSans-62" x="228.417969"/>
      <use xlink:href="#DejaVuSans-69" x="291.894531"/>
      <use xlink:href="#DejaVuSans-6e" x="319.677734"/>
      <use xlink:href="#DejaVuSans-61" x="383.056641"/>
      <use xlink:href="#DejaVuSans-74" x="444.335938"/>
      <use xlink:href="#DejaVuSans-69" x="483.544922"/>
      <use xlink:href="#DejaVuSans-6f" x="511.328125"/>
      <use xlink:href="#DejaVuSans-6e" x="572.509766"/>
      <use xlink:href="#DejaVuSans-20" x="635.888672"/>
      <use xlink:href="#DejaVuSans-38" x="667.675781"/>
     </g>
    </g>
    <g id="line2d_42">
     <path d="M 288.63875 201.351687 
L 298.63875 201.351687 
L 308.63875 201.351687 
" style="fill: none; stroke: #708090; stroke-width: 1.5; stroke-linecap: square"/>
    </g>
    <g id="text_30">
     <!-- Combination 9 -->
     <g transform="translate(316.63875 204.851687)scale(0.1 -0.1)">
      <defs>
       <path id="DejaVuSans-39" d="M 703 97 
L 703 672 
Q 941 559 1184 500 
Q 1428 441 1663 441 
Q 2288 441 2617 861 
Q 2947 1281 2994 2138 
Q 2813 1869 2534 1725 
Q 2256 1581 1919 1581 
Q 1219 1581 811 2004 
Q 403 2428 403 3163 
Q 403 3881 828 4315 
Q 1253 4750 1959 4750 
Q 2769 4750 3195 4129 
Q 3622 3509 3622 2328 
Q 3622 1225 3098 567 
Q 2575 -91 1691 -91 
Q 1453 -91 1209 -44 
Q 966 3 703 97 
z
M 1959 2075 
Q 2384 2075 2632 2365 
Q 2881 2656 2881 3163 
Q 2881 3666 2632 3958 
Q 2384 4250 1959 4250 
Q 1534 4250 1286 3958 
Q 1038 3666 1038 3163 
Q 1038 2656 1286 2365 
Q 1534 2075 1959 2075 
z
" transform="scale(0.015625)"/>
      </defs>
      <use xlink:href="#DejaVuSans-43"/>
      <use xlink:href="#DejaVuSans-6f" x="69.824219"/>
      <use xlink:href="#DejaVuSans-6d" x="131.005859"/>
      <use xlink:href="#DejaVuSans-62" x="228.417969"/>
      <use xlink:href="#DejaVuSans-69" x="291.894531"/>
      <use xlink:href="#DejaVuSans-6e" x="319.677734"/>
      <use xlink:href="#DejaVuSans-61" x="383.056641"/>
      <use xlink:href="#DejaVuSans-74" x="444.335938"/>
      <use xlink:href="#DejaVuSans-69" x="483.544922"/>
      <use xlink:href="#DejaVuSans-6f" x="511.328125"/>
      <use xlink:href="#DejaVuSans-6e" x="572.509766"/>
      <use xlink:href="#DejaVuSans-20" x="635.888672"/>
      <use xlink:href="#DejaVuSans-39" x="667.675781"/>
     </g>
    </g>
    <g id="line2d_43">
     <path d="M 288.63875 216.029812 
L 298.63875 216.029812 
L 308.63875 216.029812 
" style="fill: none; stroke: #ff1493; stroke-width: 1.5; stroke-linecap: square"/>
    </g>
    <g id="text_31">
     <!-- Combination 10 -->
     <g transform="translate(316.63875 219.529812)scale(0.1 -0.1)">
      <use xlink:href="#DejaVuSans-43"/>
      <use xlink:href="#DejaVuSans-6f" x="69.824219"/>
      <use xlink:href="#DejaVuSans-6d" x="131.005859"/>
      <use xlink:href="#DejaVuSans-62" x="228.417969"/>
      <use xlink:href="#DejaVuSans-69" x="291.894531"/>
      <use xlink:href="#DejaVuSans-6e" x="319.677734"/>
      <use xlink:href="#DejaVuSans-61" x="383.056641"/>
      <use xlink:href="#DejaVuSans-74" x="444.335938"/>
      <use xlink:href="#DejaVuSans-69" x="483.544922"/>
      <use xlink:href="#DejaVuSans-6f" x="511.328125"/>
      <use xlink:href="#DejaVuSans-6e" x="572.509766"/>
      <use xlink:href="#DejaVuSans-20" x="635.888672"/>
      <use xlink:href="#DejaVuSans-31" x="667.675781"/>
      <use xlink:href="#DejaVuSans-30" x="731.298828"/>
     </g>
    </g>
    <g id="line2d_44">
     <path d="M 288.63875 230.707937 
L 298.63875 230.707937 
L 308.63875 230.707937 
" style="fill: none; stroke: #cd853f; stroke-width: 1.5; stroke-linecap: square"/>
    </g>
    <g id="text_32">
     <!-- Combination 11 -->
     <g transform="translate(316.63875 234.207937)scale(0.1 -0.1)">
      <use xlink:href="#DejaVuSans-43"/>
      <use xlink:href="#DejaVuSans-6f" x="69.824219"/>
      <use xlink:href="#DejaVuSans-6d" x="131.005859"/>
      <use xlink:href="#DejaVuSans-62" x="228.417969"/>
      <use xlink:href="#DejaVuSans-69" x="291.894531"/>
      <use xlink:href="#DejaVuSans-6e" x="319.677734"/>
      <use xlink:href="#DejaVuSans-61" x="383.056641"/>
      <use xlink:href="#DejaVuSans-74" x="444.335938"/>
      <use xlink:href="#DejaVuSans-69" x="483.544922"/>
      <use xlink:href="#DejaVuSans-6f" x="511.328125"/>
      <use xlink:href="#DejaVuSans-6e" x="572.509766"/>
      <use xlink:href="#DejaVuSans-20" x="635.888672"/>
      <use xlink:href="#DejaVuSans-31" x="667.675781"/>
      <use xlink:href="#DejaVuSans-31" x="731.298828"/>
     </g>
    </g>
    <g id="line2d_45">
     <path d="M 288.63875 245.386062 
L 298.63875 245.386062 
L 308.63875 245.386062 
" style="fill: none; stroke: #cd853f; stroke-width: 1.5; stroke-linecap: square"/>
    </g>
    <g id="text_33">
     <!-- Combination 12 -->
     <g transform="translate(316.63875 248.886062)scale(0.1 -0.1)">
      <use xlink:href="#DejaVuSans-43"/>
      <use xlink:href="#DejaVuSans-6f" x="69.824219"/>
      <use xlink:href="#DejaVuSans-6d" x="131.005859"/>
      <use xlink:href="#DejaVuSans-62" x="228.417969"/>
      <use xlink:href="#DejaVuSans-69" x="291.894531"/>
      <use xlink:href="#DejaVuSans-6e" x="319.677734"/>
      <use xlink:href="#DejaVuSans-61" x="383.056641"/>
      <use xlink:href="#DejaVuSans-74" x="444.335938"/>
      <use xlink:href="#DejaVuSans-69" x="483.544922"/>
      <use xlink:href="#DejaVuSans-6f" x="511.328125"/>
      <use xlink:href="#DejaVuSans-6e" x="572.509766"/>
      <use xlink:href="#DejaVuSans-20" x="635.888672"/>
      <use xlink:href="#DejaVuSans-31" x="667.675781"/>
      <use xlink:href="#DejaVuSans-32" x="731.298828"/>
     </g>
    </g>
    <g id="line2d_46">
     <path d="M 288.63875 260.064187 
L 298.63875 260.064187 
L 308.63875 260.064187 
" style="fill: none; stroke: #000000; stroke-width: 1.5; stroke-linecap: square"/>
    </g>
    <g id="text_34">
     <!-- Initial Error -->
     <g transform="translate(316.63875 263.564187)scale(0.1 -0.1)">
      <use xlink:href="#DejaVuSans-49"/>
      <use xlink:href="#DejaVuSans-6e" x="29.492188"/>
      <use xlink:href="#DejaVuSans-69" x="92.871094"/>
      <use xlink:href="#DejaVuSans-74" x="120.654297"/>
      <use xlink:href="#DejaVuSans-69" x="159.863281"/>
      <use xlink:href="#DejaVuSans-61" x="187.646484"/>
      <use xlink:href="#DejaVuSans-6c" x="248.925781"/>
      <use xlink:href="#DejaVuSans-20" x="276.708984"/>
      <use xlink:href="#DejaVuSans-45" x="308.496094"/>
      <use xlink:href="#DejaVuSans-72" x="371.679688"/>
      <use xlink:href="#DejaVuSans-72" x="411.042969"/>
      <use xlink:href="#DejaVuSans-6f" x="449.90625"/>
      <use xlink:href="#DejaVuSans-72" x="511.087891"/>
     </g>
    </g>
   </g>
  </g>
 </g>
 <defs>
  <clipPath id="p3f2914d964">
   <rect x="57.6" y="41.472" width="357.12" height="266.112"/>
  </clipPath>
 </defs>
</svg>
