<?xml version="1.0" encoding="utf-8" standalone="no"?>
<!DOCTYPE svg PUBLIC "-//W3C//DTD SVG 1.1//EN"
  "http://www.w3.org/Graphics/SVG/1.1/DTD/svg11.dtd">
<svg xmlns:xlink="http://www.w3.org/1999/xlink" width="460.8pt" height="345.6pt" viewBox="0 0 460.8 345.6" xmlns="http://www.w3.org/2000/svg" version="1.1">
 <metadata>
  <rdf:RDF xmlns:dc="http://purl.org/dc/elements/1.1/" xmlns:cc="http://creativecommons.org/ns#" xmlns:rdf="http://www.w3.org/1999/02/22-rdf-syntax-ns#">
   <cc:Work>
    <dc:type rdf:resource="http://purl.org/dc/dcmitype/StillImage"/>
    <dc:date>2022-06-14T13:34:40.992013</dc:date>
    <dc:format>image/svg+xml</dc:format>
    <dc:creator>
     <cc:Agent>
      <dc:title>Matplotlib v3.5.2, https://matplotlib.org/</dc:title>
     </cc:Agent>
    </dc:creator>
   </cc:Work>
  </rdf:RDF>
 </metadata>
 <defs>
  <style type="text/css">*{stroke-linejoin: round; stroke-linecap: butt}</style>
 </defs>
 <g id="figure_1">
  <g id="patch_1">
   <path d="M 0 345.6 
L 460.8 345.6 
L 460.8 0 
L 0 0 
z
" style="fill: #ffffff"/>
  </g>
  <g id="axes_1">
   <g id="patch_2">
    <path d="M 57.6 307.584 
L 414.72 307.584 
L 414.72 41.472 
L 57.6 41.472 
z
" style="fill: #ffffff"/>
   </g>
   <g id="matplotlib.axis_1">
    <g id="xtick_1">
     <g id="line2d_1">
      <defs>
       <path id="m431085c941" d="M 0 0 
L 0 3.5 
" style="stroke: #000000; stroke-width: 0.8"/>
      </defs>
      <g>
       <use xlink:href="#m431085c941" x="73.832727" y="307.584" style="stroke: #000000; stroke-width: 0.8"/>
      </g>
     </g>
     <g id="text_1">
      <!-- 0 -->
      <g transform="translate(70.651477 322.182437)scale(0.1 -0.1)">
       <defs>
        <path id="DejaVuSans-30" d="M 2034 4250 
Q 1547 4250 1301 3770 
Q 1056 3291 1056 2328 
Q 1056 1369 1301 889 
Q 1547 409 2034 409 
Q 2525 409 2770 889 
Q 3016 1369 3016 2328 
Q 3016 3291 2770 3770 
Q 2525 4250 2034 4250 
z
M 2034 4750 
Q 2819 4750 3233 4129 
Q 3647 3509 3647 2328 
Q 3647 1150 3233 529 
Q 2819 -91 2034 -91 
Q 1250 -91 836 529 
Q 422 1150 422 2328 
Q 422 3509 836 4129 
Q 1250 4750 2034 4750 
z
" transform="scale(0.015625)"/>
       </defs>
       <use xlink:href="#DejaVuSans-30"/>
      </g>
     </g>
    </g>
    <g id="xtick_2">
     <g id="line2d_2">
      <g>
       <use xlink:href="#m431085c941" x="114.414545" y="307.584" style="stroke: #000000; stroke-width: 0.8"/>
      </g>
     </g>
     <g id="text_2">
      <!-- 25 -->
      <g transform="translate(108.052045 322.182437)scale(0.1 -0.1)">
       <defs>
        <path id="DejaVuSans-32" d="M 1228 531 
L 3431 531 
L 3431 0 
L 469 0 
L 469 531 
Q 828 903 1448 1529 
Q 2069 2156 2228 2338 
Q 2531 2678 2651 2914 
Q 2772 3150 2772 3378 
Q 2772 3750 2511 3984 
Q 2250 4219 1831 4219 
Q 1534 4219 1204 4116 
Q 875 4013 500 3803 
L 500 4441 
Q 881 4594 1212 4672 
Q 1544 4750 1819 4750 
Q 2544 4750 2975 4387 
Q 3406 4025 3406 3419 
Q 3406 3131 3298 2873 
Q 3191 2616 2906 2266 
Q 2828 2175 2409 1742 
Q 1991 1309 1228 531 
z
" transform="scale(0.015625)"/>
        <path id="DejaVuSans-35" d="M 691 4666 
L 3169 4666 
L 3169 4134 
L 1269 4134 
L 1269 2991 
Q 1406 3038 1543 3061 
Q 1681 3084 1819 3084 
Q 2600 3084 3056 2656 
Q 3513 2228 3513 1497 
Q 3513 744 3044 326 
Q 2575 -91 1722 -91 
Q 1428 -91 1123 -41 
Q 819 9 494 109 
L 494 744 
Q 775 591 1075 516 
Q 1375 441 1709 441 
Q 2250 441 2565 725 
Q 2881 1009 2881 1497 
Q 2881 1984 2565 2268 
Q 2250 2553 1709 2553 
Q 1456 2553 1204 2497 
Q 953 2441 691 2322 
L 691 4666 
z
" transform="scale(0.015625)"/>
       </defs>
       <use xlink:href="#DejaVuSans-32"/>
       <use xlink:href="#DejaVuSans-35" x="63.623047"/>
      </g>
     </g>
    </g>
    <g id="xtick_3">
     <g id="line2d_3">
      <g>
       <use xlink:href="#m431085c941" x="154.996364" y="307.584" style="stroke: #000000; stroke-width: 0.8"/>
      </g>
     </g>
     <g id="text_3">
      <!-- 50 -->
      <g transform="translate(148.633864 322.182437)scale(0.1 -0.1)">
       <use xlink:href="#DejaVuSans-35"/>
       <use xlink:href="#DejaVuSans-30" x="63.623047"/>
      </g>
     </g>
    </g>
    <g id="xtick_4">
     <g id="line2d_4">
      <g>
       <use xlink:href="#m431085c941" x="195.578182" y="307.584" style="stroke: #000000; stroke-width: 0.8"/>
      </g>
     </g>
     <g id="text_4">
      <!-- 75 -->
      <g transform="translate(189.215682 322.182437)scale(0.1 -0.1)">
       <defs>
        <path id="DejaVuSans-37" d="M 525 4666 
L 3525 4666 
L 3525 4397 
L 1831 0 
L 1172 0 
L 2766 4134 
L 525 4134 
L 525 4666 
z
" transform="scale(0.015625)"/>
       </defs>
       <use xlink:href="#DejaVuSans-37"/>
       <use xlink:href="#DejaVuSans-35" x="63.623047"/>
      </g>
     </g>
    </g>
    <g id="xtick_5">
     <g id="line2d_5">
      <g>
       <use xlink:href="#m431085c941" x="236.16" y="307.584" style="stroke: #000000; stroke-width: 0.8"/>
      </g>
     </g>
     <g id="text_5">
      <!-- 100 -->
      <g transform="translate(226.61625 322.182437)scale(0.1 -0.1)">
       <defs>
        <path id="DejaVuSans-31" d="M 794 531 
L 1825 531 
L 1825 4091 
L 703 3866 
L 703 4441 
L 1819 4666 
L 2450 4666 
L 2450 531 
L 3481 531 
L 3481 0 
L 794 0 
L 794 531 
z
" transform="scale(0.015625)"/>
       </defs>
       <use xlink:href="#DejaVuSans-31"/>
       <use xlink:href="#DejaVuSans-30" x="63.623047"/>
       <use xlink:href="#DejaVuSans-30" x="127.246094"/>
      </g>
     </g>
    </g>
    <g id="xtick_6">
     <g id="line2d_6">
      <g>
       <use xlink:href="#m431085c941" x="276.741818" y="307.584" style="stroke: #000000; stroke-width: 0.8"/>
      </g>
     </g>
     <g id="text_6">
      <!-- 125 -->
      <g transform="translate(267.198068 322.182437)scale(0.1 -0.1)">
       <use xlink:href="#DejaVuSans-31"/>
       <use xlink:href="#DejaVuSans-32" x="63.623047"/>
       <use xlink:href="#DejaVuSans-35" x="127.246094"/>
      </g>
     </g>
    </g>
    <g id="xtick_7">
     <g id="line2d_7">
      <g>
       <use xlink:href="#m431085c941" x="317.323636" y="307.584" style="stroke: #000000; stroke-width: 0.8"/>
      </g>
     </g>
     <g id="text_7">
      <!-- 150 -->
      <g transform="translate(307.779886 322.182437)scale(0.1 -0.1)">
       <use xlink:href="#DejaVuSans-31"/>
       <use xlink:href="#DejaVuSans-35" x="63.623047"/>
       <use xlink:href="#DejaVuSans-30" x="127.246094"/>
      </g>
     </g>
    </g>
    <g id="xtick_8">
     <g id="line2d_8">
      <g>
       <use xlink:href="#m431085c941" x="357.905455" y="307.584" style="stroke: #000000; stroke-width: 0.8"/>
      </g>
     </g>
     <g id="text_8">
      <!-- 175 -->
      <g transform="translate(348.361705 322.182437)scale(0.1 -0.1)">
       <use xlink:href="#DejaVuSans-31"/>
       <use xlink:href="#DejaVuSans-37" x="63.623047"/>
       <use xlink:href="#DejaVuSans-35" x="127.246094"/>
      </g>
     </g>
    </g>
    <g id="xtick_9">
     <g id="line2d_9">
      <g>
       <use xlink:href="#m431085c941" x="398.487273" y="307.584" style="stroke: #000000; stroke-width: 0.8"/>
      </g>
     </g>
     <g id="text_9">
      <!-- 200 -->
      <g transform="translate(388.943523 322.182437)scale(0.1 -0.1)">
       <use xlink:href="#DejaVuSans-32"/>
       <use xlink:href="#DejaVuSans-30" x="63.623047"/>
       <use xlink:href="#DejaVuSans-30" x="127.246094"/>
      </g>
     </g>
    </g>
    <g id="text_10">
     <!-- Iteration -->
     <g transform="translate(214.951406 335.860562)scale(0.1 -0.1)">
      <defs>
       <path id="DejaVuSans-49" d="M 628 4666 
L 1259 4666 
L 1259 0 
L 628 0 
L 628 4666 
z
" transform="scale(0.015625)"/>
       <path id="DejaVuSans-74" d="M 1172 4494 
L 1172 3500 
L 2356 3500 
L 2356 3053 
L 1172 3053 
L 1172 1153 
Q 1172 725 1289 603 
Q 1406 481 1766 481 
L 2356 481 
L 2356 0 
L 1766 0 
Q 1100 0 847 248 
Q 594 497 594 1153 
L 594 3053 
L 172 3053 
L 172 3500 
L 594 3500 
L 594 4494 
L 1172 4494 
z
" transform="scale(0.015625)"/>
       <path id="DejaVuSans-65" d="M 3597 1894 
L 3597 1613 
L 953 1613 
Q 991 1019 1311 708 
Q 1631 397 2203 397 
Q 2534 397 2845 478 
Q 3156 559 3463 722 
L 3463 178 
Q 3153 47 2828 -22 
Q 2503 -91 2169 -91 
Q 1331 -91 842 396 
Q 353 884 353 1716 
Q 353 2575 817 3079 
Q 1281 3584 2069 3584 
Q 2775 3584 3186 3129 
Q 3597 2675 3597 1894 
z
M 3022 2063 
Q 3016 2534 2758 2815 
Q 2500 3097 2075 3097 
Q 1594 3097 1305 2825 
Q 1016 2553 972 2059 
L 3022 2063 
z
" transform="scale(0.015625)"/>
       <path id="DejaVuSans-72" d="M 2631 2963 
Q 2534 3019 2420 3045 
Q 2306 3072 2169 3072 
Q 1681 3072 1420 2755 
Q 1159 2438 1159 1844 
L 1159 0 
L 581 0 
L 581 3500 
L 1159 3500 
L 1159 2956 
Q 1341 3275 1631 3429 
Q 1922 3584 2338 3584 
Q 2397 3584 2469 3576 
Q 2541 3569 2628 3553 
L 2631 2963 
z
" transform="scale(0.015625)"/>
       <path id="DejaVuSans-61" d="M 2194 1759 
Q 1497 1759 1228 1600 
Q 959 1441 959 1056 
Q 959 750 1161 570 
Q 1363 391 1709 391 
Q 2188 391 2477 730 
Q 2766 1069 2766 1631 
L 2766 1759 
L 2194 1759 
z
M 3341 1997 
L 3341 0 
L 2766 0 
L 2766 531 
Q 2569 213 2275 61 
Q 1981 -91 1556 -91 
Q 1019 -91 701 211 
Q 384 513 384 1019 
Q 384 1609 779 1909 
Q 1175 2209 1959 2209 
L 2766 2209 
L 2766 2266 
Q 2766 2663 2505 2880 
Q 2244 3097 1772 3097 
Q 1472 3097 1187 3025 
Q 903 2953 641 2809 
L 641 3341 
Q 956 3463 1253 3523 
Q 1550 3584 1831 3584 
Q 2591 3584 2966 3190 
Q 3341 2797 3341 1997 
z
" transform="scale(0.015625)"/>
       <path id="DejaVuSans-69" d="M 603 3500 
L 1178 3500 
L 1178 0 
L 603 0 
L 603 3500 
z
M 603 4863 
L 1178 4863 
L 1178 4134 
L 603 4134 
L 603 4863 
z
" transform="scale(0.015625)"/>
       <path id="DejaVuSans-6f" d="M 1959 3097 
Q 1497 3097 1228 2736 
Q 959 2375 959 1747 
Q 959 1119 1226 758 
Q 1494 397 1959 397 
Q 2419 397 2687 759 
Q 2956 1122 2956 1747 
Q 2956 2369 2687 2733 
Q 2419 3097 1959 3097 
z
M 1959 3584 
Q 2709 3584 3137 3096 
Q 3566 2609 3566 1747 
Q 3566 888 3137 398 
Q 2709 -91 1959 -91 
Q 1206 -91 779 398 
Q 353 888 353 1747 
Q 353 2609 779 3096 
Q 1206 3584 1959 3584 
z
" transform="scale(0.015625)"/>
       <path id="DejaVuSans-6e" d="M 3513 2113 
L 3513 0 
L 2938 0 
L 2938 2094 
Q 2938 2591 2744 2837 
Q 2550 3084 2163 3084 
Q 1697 3084 1428 2787 
Q 1159 2491 1159 1978 
L 1159 0 
L 581 0 
L 581 3500 
L 1159 3500 
L 1159 2956 
Q 1366 3272 1645 3428 
Q 1925 3584 2291 3584 
Q 2894 3584 3203 3211 
Q 3513 2838 3513 2113 
z
" transform="scale(0.015625)"/>
      </defs>
      <use xlink:href="#DejaVuSans-49"/>
      <use xlink:href="#DejaVuSans-74" x="29.492188"/>
      <use xlink:href="#DejaVuSans-65" x="68.701172"/>
      <use xlink:href="#DejaVuSans-72" x="130.224609"/>
      <use xlink:href="#DejaVuSans-61" x="171.337891"/>
      <use xlink:href="#DejaVuSans-74" x="232.617188"/>
      <use xlink:href="#DejaVuSans-69" x="271.826172"/>
      <use xlink:href="#DejaVuSans-6f" x="299.609375"/>
      <use xlink:href="#DejaVuSans-6e" x="360.791016"/>
     </g>
    </g>
   </g>
   <g id="matplotlib.axis_2">
    <g id="ytick_1">
     <g id="line2d_10">
      <defs>
       <path id="m2ddd03003c" d="M 0 0 
L -3.5 0 
" style="stroke: #000000; stroke-width: 0.8"/>
      </defs>
      <g>
       <use xlink:href="#m2ddd03003c" x="57.6" y="275.328" style="stroke: #000000; stroke-width: 0.8"/>
      </g>
     </g>
     <g id="text_11">
      <!-- 2.5 -->
      <g transform="translate(34.696875 279.127219)scale(0.1 -0.1)">
       <defs>
        <path id="DejaVuSans-2e" d="M 684 794 
L 1344 794 
L 1344 0 
L 684 0 
L 684 794 
z
" transform="scale(0.015625)"/>
       </defs>
       <use xlink:href="#DejaVuSans-32"/>
       <use xlink:href="#DejaVuSans-2e" x="63.623047"/>
       <use xlink:href="#DejaVuSans-35" x="95.410156"/>
      </g>
     </g>
    </g>
    <g id="ytick_2">
     <g id="line2d_11">
      <g>
       <use xlink:href="#m2ddd03003c" x="57.6" y="241.728" style="stroke: #000000; stroke-width: 0.8"/>
      </g>
     </g>
     <g id="text_12">
      <!-- 5.0 -->
      <g transform="translate(34.696875 245.527219)scale(0.1 -0.1)">
       <use xlink:href="#DejaVuSans-35"/>
       <use xlink:href="#DejaVuSans-2e" x="63.623047"/>
       <use xlink:href="#DejaVuSans-30" x="95.410156"/>
      </g>
     </g>
    </g>
    <g id="ytick_3">
     <g id="line2d_12">
      <g>
       <use xlink:href="#m2ddd03003c" x="57.6" y="208.128" style="stroke: #000000; stroke-width: 0.8"/>
      </g>
     </g>
     <g id="text_13">
      <!-- 7.5 -->
      <g transform="translate(34.696875 211.927219)scale(0.1 -0.1)">
       <use xlink:href="#DejaVuSans-37"/>
       <use xlink:href="#DejaVuSans-2e" x="63.623047"/>
       <use xlink:href="#DejaVuSans-35" x="95.410156"/>
      </g>
     </g>
    </g>
    <g id="ytick_4">
     <g id="line2d_13">
      <g>
       <use xlink:href="#m2ddd03003c" x="57.6" y="174.528" style="stroke: #000000; stroke-width: 0.8"/>
      </g>
     </g>
     <g id="text_14">
      <!-- 10.0 -->
      <g transform="translate(28.334375 178.327219)scale(0.1 -0.1)">
       <use xlink:href="#DejaVuSans-31"/>
       <use xlink:href="#DejaVuSans-30" x="63.623047"/>
       <use xlink:href="#DejaVuSans-2e" x="127.246094"/>
       <use xlink:href="#DejaVuSans-30" x="159.033203"/>
      </g>
     </g>
    </g>
    <g id="ytick_5">
     <g id="line2d_14">
      <g>
       <use xlink:href="#m2ddd03003c" x="57.6" y="140.928" style="stroke: #000000; stroke-width: 0.8"/>
      </g>
     </g>
     <g id="text_15">
      <!-- 12.5 -->
      <g transform="translate(28.334375 144.727219)scale(0.1 -0.1)">
       <use xlink:href="#DejaVuSans-31"/>
       <use xlink:href="#DejaVuSans-32" x="63.623047"/>
       <use xlink:href="#DejaVuSans-2e" x="127.246094"/>
       <use xlink:href="#DejaVuSans-35" x="159.033203"/>
      </g>
     </g>
    </g>
    <g id="ytick_6">
     <g id="line2d_15">
      <g>
       <use xlink:href="#m2ddd03003c" x="57.6" y="107.328" style="stroke: #000000; stroke-width: 0.8"/>
      </g>
     </g>
     <g id="text_16">
      <!-- 15.0 -->
      <g transform="translate(28.334375 111.127219)scale(0.1 -0.1)">
       <use xlink:href="#DejaVuSans-31"/>
       <use xlink:href="#DejaVuSans-35" x="63.623047"/>
       <use xlink:href="#DejaVuSans-2e" x="127.246094"/>
       <use xlink:href="#DejaVuSans-30" x="159.033203"/>
      </g>
     </g>
    </g>
    <g id="ytick_7">
     <g id="line2d_16">
      <g>
       <use xlink:href="#m2ddd03003c" x="57.6" y="73.728" style="stroke: #000000; stroke-width: 0.8"/>
      </g>
     </g>
     <g id="text_17">
      <!-- 17.5 -->
      <g transform="translate(28.334375 77.527219)scale(0.1 -0.1)">
       <use xlink:href="#DejaVuSans-31"/>
       <use xlink:href="#DejaVuSans-37" x="63.623047"/>
       <use xlink:href="#DejaVuSans-2e" x="127.246094"/>
       <use xlink:href="#DejaVuSans-35" x="159.033203"/>
      </g>
     </g>
    </g>
    <g id="text_18">
     <!-- Error -->
     <g transform="translate(22.254688 186.713156)rotate(-90)scale(0.1 -0.1)">
      <defs>
       <path id="DejaVuSans-45" d="M 628 4666 
L 3578 4666 
L 3578 4134 
L 1259 4134 
L 1259 2753 
L 3481 2753 
L 3481 2222 
L 1259 2222 
L 1259 531 
L 3634 531 
L 3634 0 
L 628 0 
L 628 4666 
z
" transform="scale(0.015625)"/>
      </defs>
      <use xlink:href="#DejaVuSans-45"/>
      <use xlink:href="#DejaVuSans-72" x="63.183594"/>
      <use xlink:href="#DejaVuSans-72" x="102.546875"/>
      <use xlink:href="#DejaVuSans-6f" x="141.410156"/>
      <use xlink:href="#DejaVuSans-72" x="202.591797"/>
     </g>
    </g>
   </g>
   <g id="line2d_17">
    <path d="M 73.832727 134.208 
L 75.456 147.648 
L 77.079273 187.968 
L 78.702545 161.088 
L 80.325818 201.408 
L 81.949091 228.288 
L 83.572364 228.288 
L 85.195636 201.408 
L 86.818909 255.168 
L 88.442182 268.608 
L 93.312 268.608 
L 94.935273 282.048 
L 96.558545 268.608 
L 103.051636 268.608 
L 104.674909 282.048 
L 106.298182 268.608 
L 107.921455 282.048 
L 109.544727 282.048 
L 111.168 268.608 
L 112.791273 282.048 
L 114.414545 282.048 
L 116.037818 268.608 
L 122.530909 268.608 
L 124.154182 282.048 
L 130.647273 282.048 
L 132.270545 268.608 
L 133.893818 282.048 
L 137.140364 282.048 
L 138.763636 295.488 
L 140.386909 295.488 
L 142.010182 282.048 
L 153.373091 282.048 
L 154.996364 295.488 
L 156.619636 282.048 
L 158.242909 282.048 
L 159.866182 268.608 
L 161.489455 282.048 
L 169.605818 282.048 
L 171.229091 295.488 
L 172.852364 282.048 
L 174.475636 295.488 
L 176.098909 295.488 
L 177.722182 282.048 
L 195.578182 282.048 
L 197.201455 295.488 
L 200.448 295.488 
L 202.071273 282.048 
L 203.694545 282.048 
L 205.317818 295.488 
L 206.941091 282.048 
L 228.043636 282.048 
L 229.666909 295.488 
L 231.290182 282.048 
L 241.029818 282.048 
L 242.653091 295.488 
L 244.276364 282.048 
L 252.392727 282.048 
L 254.016 268.608 
L 255.639273 282.048 
L 260.509091 282.048 
L 262.132364 295.488 
L 268.625455 295.488 
L 270.248727 282.048 
L 271.872 295.488 
L 273.495273 282.048 
L 284.858182 282.048 
L 286.481455 295.488 
L 288.104727 282.048 
L 296.221091 282.048 
L 297.844364 295.488 
L 299.467636 282.048 
L 301.090909 295.488 
L 302.714182 282.048 
L 304.337455 295.488 
L 305.960727 282.048 
L 314.077091 282.048 
L 315.700364 295.488 
L 317.323636 282.048 
L 343.296 282.048 
L 344.919273 295.488 
L 346.542545 282.048 
L 398.487273 282.048 
L 398.487273 282.048 
" clip-path="url(#p53a366d0b6)" style="fill: none; stroke: #191970; stroke-width: 1.5; stroke-linecap: square"/>
   </g>
   <g id="line2d_18">
    <path d="M 73.832727 147.648 
L 75.456 161.088 
L 77.079273 147.648 
L 78.702545 187.968 
L 80.325818 187.968 
L 81.949091 201.408 
L 83.572364 255.168 
L 85.195636 268.608 
L 86.818909 268.608 
L 88.442182 282.048 
L 90.065455 268.608 
L 94.935273 268.608 
L 96.558545 282.048 
L 106.298182 282.048 
L 107.921455 295.488 
L 111.168 268.608 
L 112.791273 282.048 
L 171.229091 282.048 
L 172.852364 295.488 
L 174.475636 282.048 
L 198.824727 282.048 
L 200.448 268.608 
L 202.071273 282.048 
L 211.810909 282.048 
L 213.434182 268.608 
L 398.487273 268.608 
L 398.487273 268.608 
" clip-path="url(#p53a366d0b6)" style="fill: none; stroke: #3cb371; stroke-width: 1.5; stroke-linecap: square"/>
   </g>
   <g id="line2d_19">
    <path d="M 73.832727 120.768 
L 75.456 120.768 
L 77.079273 161.088 
L 78.702545 161.088 
L 80.325818 187.968 
L 81.949091 255.168 
L 83.572364 255.168 
L 85.195636 241.728 
L 86.818909 268.608 
L 91.688727 268.608 
L 93.312 282.048 
L 94.935273 268.608 
L 96.558545 268.608 
L 98.181818 282.048 
L 133.893818 282.048 
L 135.517091 295.488 
L 138.763636 295.488 
L 140.386909 282.048 
L 151.749818 282.048 
L 153.373091 295.488 
L 154.996364 282.048 
L 169.605818 282.048 
L 171.229091 295.488 
L 172.852364 282.048 
L 197.201455 282.048 
L 198.824727 295.488 
L 200.448 295.488 
L 202.071273 282.048 
L 231.290182 282.048 
L 232.913455 295.488 
L 234.536727 282.048 
L 239.406545 282.048 
L 241.029818 295.488 
L 242.653091 282.048 
L 244.276364 295.488 
L 245.899636 282.048 
L 276.741818 282.048 
L 278.365091 295.488 
L 279.988364 295.488 
L 281.611636 282.048 
L 288.104727 282.048 
L 289.728 295.488 
L 291.351273 282.048 
L 297.844364 282.048 
L 299.467636 295.488 
L 301.090909 282.048 
L 309.207273 282.048 
L 310.830545 295.488 
L 314.077091 295.488 
L 315.700364 282.048 
L 317.323636 282.048 
L 318.946909 295.488 
L 320.570182 282.048 
L 331.933091 282.048 
L 333.556364 295.488 
L 335.179636 282.048 
L 336.802909 295.488 
L 338.426182 282.048 
L 343.296 282.048 
L 344.919273 295.488 
L 346.542545 282.048 
L 351.412364 282.048 
L 353.035636 295.488 
L 354.658909 282.048 
L 356.282182 282.048 
L 357.905455 295.488 
L 359.528727 282.048 
L 377.384727 282.048 
L 379.008 295.488 
L 380.631273 282.048 
L 387.124364 282.048 
L 388.747636 295.488 
L 395.240727 295.488 
L 396.864 282.048 
L 398.487273 295.488 
L 398.487273 295.488 
" clip-path="url(#p53a366d0b6)" style="fill: none; stroke: #9370db; stroke-width: 1.5; stroke-linecap: square"/>
   </g>
   <g id="line2d_20">
    <path d="M 73.832727 134.208 
L 75.456 147.648 
L 77.079273 147.648 
L 78.702545 268.608 
L 398.487273 268.608 
L 398.487273 268.608 
" clip-path="url(#p53a366d0b6)" style="fill: none; stroke: #ff4500; stroke-width: 1.5; stroke-linecap: square"/>
   </g>
   <g id="line2d_21">
    <path d="M 73.832727 134.208 
L 75.456 147.648 
L 77.079273 187.968 
L 78.702545 228.288 
L 80.325818 268.608 
L 81.949091 268.608 
L 83.572364 268.608 
L 85.195636 268.608 
L 86.818909 282.048 
L 88.442182 268.608 
L 90.065455 282.048 
L 91.688727 282.048 
L 93.312 282.048 
L 94.935273 282.048 
L 96.558545 282.048 
L 98.181818 282.048 
L 99.805091 282.048 
L 101.428364 282.048 
L 103.051636 282.048 
L 104.674909 282.048 
L 106.298182 282.048 
L 107.921455 282.048 
L 109.544727 282.048 
L 111.168 282.048 
L 112.791273 282.048 
L 114.414545 282.048 
L 116.037818 282.048 
L 117.661091 268.608 
L 119.284364 282.048 
L 120.907636 282.048 
L 122.530909 282.048 
L 124.154182 282.048 
L 125.777455 282.048 
L 127.400727 282.048 
L 129.024 282.048 
L 130.647273 282.048 
L 132.270545 282.048 
L 133.893818 282.048 
L 135.517091 282.048 
L 137.140364 282.048 
L 138.763636 282.048 
L 140.386909 282.048 
L 142.010182 282.048 
L 143.633455 282.048 
L 145.256727 268.608 
L 146.88 282.048 
L 148.503273 268.608 
L 150.126545 282.048 
L 151.749818 282.048 
L 153.373091 282.048 
L 154.996364 282.048 
L 156.619636 282.048 
L 158.242909 282.048 
L 159.866182 282.048 
L 161.489455 282.048 
L 163.112727 282.048 
L 164.736 282.048 
L 166.359273 282.048 
L 167.982545 268.608 
L 169.605818 282.048 
L 171.229091 282.048 
L 172.852364 282.048 
L 174.475636 282.048 
L 176.098909 268.608 
L 177.722182 268.608 
L 179.345455 268.608 
L 180.968727 268.608 
L 182.592 268.608 
L 184.215273 282.048 
L 185.838545 268.608 
L 187.461818 268.608 
L 189.085091 268.608 
L 190.708364 282.048 
L 192.331636 268.608 
L 193.954909 268.608 
L 195.578182 268.608 
L 197.201455 268.608 
L 198.824727 268.608 
L 200.448 282.048 
L 202.071273 268.608 
L 203.694545 268.608 
L 205.317818 268.608 
L 206.941091 268.608 
L 208.564364 268.608 
L 210.187636 268.608 
L 211.810909 268.608 
L 213.434182 268.608 
L 215.057455 282.048 
L 216.680727 268.608 
L 218.304 268.608 
L 219.927273 268.608 
L 221.550545 268.608 
L 223.173818 268.608 
L 224.797091 268.608 
L 226.420364 268.608 
L 228.043636 268.608 
L 229.666909 268.608 
L 231.290182 268.608 
L 232.913455 268.608 
L 234.536727 268.608 
L 236.16 268.608 
L 237.783273 268.608 
L 239.406545 282.048 
L 241.029818 268.608 
L 242.653091 268.608 
L 244.276364 268.608 
L 245.899636 268.608 
L 247.522909 268.608 
L 249.146182 282.048 
" clip-path="url(#p53a366d0b6)" style="fill: none; stroke: #ffd700; stroke-width: 1.5; stroke-linecap: square"/>
   </g>
   <g id="line2d_22">
    <path d="M 73.832727 120.768 
L 75.456 134.208 
L 86.818909 134.208 
L 88.442182 147.648 
L 90.065455 147.648 
L 91.688727 134.208 
L 93.312 147.648 
L 96.558545 147.648 
L 98.181818 134.208 
L 107.921455 134.208 
L 109.544727 147.648 
L 111.168 134.208 
L 112.791273 147.648 
L 119.284364 147.648 
L 120.907636 134.208 
L 129.024 134.208 
L 130.647273 147.648 
L 132.270545 134.208 
L 133.893818 134.208 
L 135.517091 147.648 
L 142.010182 147.648 
L 143.633455 134.208 
L 146.88 134.208 
L 148.503273 147.648 
L 150.126545 134.208 
L 151.749818 134.208 
L 153.373091 147.648 
L 154.996364 134.208 
L 156.619636 147.648 
L 161.489455 147.648 
L 163.112727 134.208 
L 174.475636 134.208 
L 176.098909 147.648 
L 177.722182 147.648 
L 179.345455 134.208 
L 182.592 134.208 
L 184.215273 147.648 
L 185.838545 134.208 
L 187.461818 147.648 
L 189.085091 134.208 
L 190.708364 147.648 
L 192.331636 134.208 
L 203.694545 134.208 
L 205.317818 147.648 
L 206.941091 147.648 
L 208.564364 134.208 
L 211.810909 134.208 
L 213.434182 147.648 
L 215.057455 134.208 
L 216.680727 134.208 
L 218.304 147.648 
L 219.927273 134.208 
L 221.550545 134.208 
L 223.173818 147.648 
L 224.797091 134.208 
L 236.16 134.208 
L 237.783273 147.648 
L 239.406545 134.208 
L 241.029818 134.208 
L 242.653091 147.648 
L 244.276364 147.648 
L 245.899636 134.208 
L 249.146182 134.208 
L 250.769455 147.648 
L 252.392727 134.208 
L 254.016 147.648 
L 257.262545 147.648 
L 258.885818 134.208 
L 260.509091 147.648 
L 262.132364 134.208 
L 263.755636 147.648 
L 265.378909 134.208 
L 267.002182 134.208 
L 268.625455 147.648 
L 270.248727 134.208 
L 276.741818 134.208 
L 278.365091 147.648 
L 279.988364 147.648 
L 281.611636 268.608 
L 283.234909 134.208 
L 284.858182 147.648 
L 286.481455 134.208 
L 288.104727 147.648 
L 294.597818 147.648 
L 296.221091 134.208 
L 297.844364 147.648 
L 299.467636 134.208 
L 301.090909 134.208 
L 302.714182 147.648 
L 304.337455 147.648 
L 305.960727 134.208 
L 307.584 134.208 
L 309.207273 147.648 
L 310.830545 134.208 
L 312.453818 147.648 
L 314.077091 134.208 
L 315.700364 147.648 
L 317.323636 134.208 
L 318.946909 147.648 
L 320.570182 134.208 
L 322.193455 147.648 
L 325.44 147.648 
L 327.063273 134.208 
L 328.686545 134.208 
L 330.309818 147.648 
L 333.556364 147.648 
L 335.179636 134.208 
L 336.802909 147.648 
L 338.426182 134.208 
L 340.049455 147.648 
L 341.672727 147.648 
L 343.296 134.208 
L 344.919273 147.648 
L 346.542545 134.208 
L 349.789091 134.208 
L 351.412364 147.648 
L 353.035636 134.208 
L 354.658909 147.648 
L 356.282182 147.648 
L 357.905455 134.208 
L 359.528727 147.648 
L 361.152 134.208 
L 362.775273 134.208 
L 364.398545 147.648 
L 366.021818 134.208 
L 367.645091 147.648 
L 369.268364 147.648 
L 370.891636 134.208 
L 380.631273 134.208 
L 382.254545 147.648 
L 383.877818 134.208 
L 385.501091 147.648 
L 387.124364 134.208 
L 388.747636 147.648 
L 390.370909 147.648 
L 391.994182 134.208 
L 393.617455 147.648 
L 395.240727 147.648 
L 396.864 134.208 
L 398.487273 147.648 
L 398.487273 147.648 
" clip-path="url(#p53a366d0b6)" style="fill: none; stroke: #708090; stroke-width: 1.5; stroke-linecap: square"/>
   </g>
   <g id="line2d_23">
    <path d="M 73.832727 201.408 
L 75.456 187.968 
L 77.079273 201.408 
L 78.702545 201.408 
L 80.325818 187.968 
L 81.949091 201.408 
L 83.572364 201.408 
L 85.195636 214.848 
L 93.312 214.848 
L 94.935273 268.608 
L 96.558545 214.848 
L 116.037818 214.848 
L 117.661091 228.288 
L 119.284364 214.848 
L 130.647273 214.848 
L 132.270545 228.288 
L 133.893818 214.848 
L 135.517091 228.288 
L 137.140364 214.848 
L 138.763636 228.288 
L 140.386909 214.848 
L 142.010182 214.848 
L 143.633455 228.288 
L 145.256727 228.288 
L 146.88 214.848 
L 148.503273 228.288 
L 150.126545 214.848 
L 153.373091 214.848 
L 154.996364 228.288 
L 156.619636 228.288 
L 158.242909 214.848 
L 159.866182 228.288 
L 161.489455 214.848 
L 163.112727 228.288 
L 164.736 214.848 
L 166.359273 214.848 
L 167.982545 228.288 
L 169.605818 214.848 
L 172.852364 214.848 
L 174.475636 268.608 
L 176.098909 214.848 
L 177.722182 214.848 
L 179.345455 228.288 
L 180.968727 214.848 
L 190.708364 214.848 
L 192.331636 228.288 
L 193.954909 214.848 
L 198.824727 214.848 
L 200.448 228.288 
L 202.071273 214.848 
L 208.564364 214.848 
L 210.187636 228.288 
L 211.810909 214.848 
L 216.680727 214.848 
L 218.304 228.288 
L 219.927273 214.848 
L 226.420364 214.848 
L 228.043636 228.288 
L 229.666909 228.288 
L 231.290182 214.848 
L 242.653091 214.848 
L 244.276364 228.288 
L 245.899636 228.288 
L 247.522909 214.848 
L 249.146182 214.848 
L 250.769455 228.288 
L 252.392727 214.848 
L 255.639273 214.848 
L 257.262545 228.288 
L 258.885818 214.848 
L 263.755636 214.848 
L 265.378909 228.288 
L 267.002182 214.848 
L 284.858182 214.848 
L 286.481455 228.288 
L 288.104727 214.848 
L 289.728 214.848 
L 291.351273 228.288 
L 292.974545 214.848 
L 296.221091 214.848 
L 297.844364 228.288 
L 299.467636 214.848 
L 307.584 214.848 
L 309.207273 228.288 
L 310.830545 214.848 
L 312.453818 214.848 
L 314.077091 228.288 
L 315.700364 214.848 
L 317.323636 214.848 
L 318.946909 228.288 
L 320.570182 214.848 
L 330.309818 214.848 
L 331.933091 228.288 
L 333.556364 214.848 
L 336.802909 214.848 
L 338.426182 228.288 
L 340.049455 214.848 
L 349.789091 214.848 
L 351.412364 228.288 
L 353.035636 214.848 
L 359.528727 214.848 
L 361.152 228.288 
L 362.775273 228.288 
L 364.398545 214.848 
L 367.645091 214.848 
L 369.268364 228.288 
L 370.891636 228.288 
L 372.514909 214.848 
L 379.008 214.848 
L 380.631273 228.288 
L 382.254545 214.848 
L 383.877818 228.288 
L 385.501091 228.288 
L 387.124364 214.848 
L 395.240727 214.848 
L 396.864 228.288 
L 398.487273 214.848 
L 398.487273 214.848 
" clip-path="url(#p53a366d0b6)" style="fill: none; stroke: #ff1493; stroke-width: 1.5; stroke-linecap: square"/>
   </g>
   <g id="line2d_24">
    <path d="M 73.832727 268.608 
L 398.487273 268.608 
L 398.487273 268.608 
" clip-path="url(#p53a366d0b6)" style="fill: none; stroke: #cd853f; stroke-width: 1.5; stroke-linecap: square"/>
   </g>
   <g id="line2d_25">
    <path d="M 73.832727 53.568 
L 398.487273 53.568 
L 398.487273 53.568 
" clip-path="url(#p53a366d0b6)" style="fill: none; stroke: #000000; stroke-width: 1.5; stroke-linecap: square"/>
   </g>
   <g id="patch_3">
    <path d="M 57.6 307.584 
L 57.6 41.472 
" style="fill: none; stroke: #000000; stroke-width: 0.8; stroke-linejoin: miter; stroke-linecap: square"/>
   </g>
   <g id="patch_4">
    <path d="M 414.72 307.584 
L 414.72 41.472 
" style="fill: none; stroke: #000000; stroke-width: 0.8; stroke-linejoin: miter; stroke-linecap: square"/>
   </g>
   <g id="patch_5">
    <path d="M 57.6 307.584 
L 414.72 307.584 
" style="fill: none; stroke: #000000; stroke-width: 0.8; stroke-linejoin: miter; stroke-linecap: square"/>
   </g>
   <g id="patch_6">
    <path d="M 57.6 41.472 
L 414.72 41.472 
" style="fill: none; stroke: #000000; stroke-width: 0.8; stroke-linejoin: miter; stroke-linecap: square"/>
   </g>
   <g id="text_19">
    <!-- Error Progression in Example strings/1-58-1.pl -->
    <g transform="translate(98.3175 35.472)scale(0.12 -0.12)">
     <defs>
      <path id="DejaVuSans-20" transform="scale(0.015625)"/>
      <path id="DejaVuSans-50" d="M 1259 4147 
L 1259 2394 
L 2053 2394 
Q 2494 2394 2734 2622 
Q 2975 2850 2975 3272 
Q 2975 3691 2734 3919 
Q 2494 4147 2053 4147 
L 1259 4147 
z
M 628 4666 
L 2053 4666 
Q 2838 4666 3239 4311 
Q 3641 3956 3641 3272 
Q 3641 2581 3239 2228 
Q 2838 1875 2053 1875 
L 1259 1875 
L 1259 0 
L 628 0 
L 628 4666 
z
" transform="scale(0.015625)"/>
      <path id="DejaVuSans-67" d="M 2906 1791 
Q 2906 2416 2648 2759 
Q 2391 3103 1925 3103 
Q 1463 3103 1205 2759 
Q 947 2416 947 1791 
Q 947 1169 1205 825 
Q 1463 481 1925 481 
Q 2391 481 2648 825 
Q 2906 1169 2906 1791 
z
M 3481 434 
Q 3481 -459 3084 -895 
Q 2688 -1331 1869 -1331 
Q 1566 -1331 1297 -1286 
Q 1028 -1241 775 -1147 
L 775 -588 
Q 1028 -725 1275 -790 
Q 1522 -856 1778 -856 
Q 2344 -856 2625 -561 
Q 2906 -266 2906 331 
L 2906 616 
Q 2728 306 2450 153 
Q 2172 0 1784 0 
Q 1141 0 747 490 
Q 353 981 353 1791 
Q 353 2603 747 3093 
Q 1141 3584 1784 3584 
Q 2172 3584 2450 3431 
Q 2728 3278 2906 2969 
L 2906 3500 
L 3481 3500 
L 3481 434 
z
" transform="scale(0.015625)"/>
      <path id="DejaVuSans-73" d="M 2834 3397 
L 2834 2853 
Q 2591 2978 2328 3040 
Q 2066 3103 1784 3103 
Q 1356 3103 1142 2972 
Q 928 2841 928 2578 
Q 928 2378 1081 2264 
Q 1234 2150 1697 2047 
L 1894 2003 
Q 2506 1872 2764 1633 
Q 3022 1394 3022 966 
Q 3022 478 2636 193 
Q 2250 -91 1575 -91 
Q 1294 -91 989 -36 
Q 684 19 347 128 
L 347 722 
Q 666 556 975 473 
Q 1284 391 1588 391 
Q 1994 391 2212 530 
Q 2431 669 2431 922 
Q 2431 1156 2273 1281 
Q 2116 1406 1581 1522 
L 1381 1569 
Q 847 1681 609 1914 
Q 372 2147 372 2553 
Q 372 3047 722 3315 
Q 1072 3584 1716 3584 
Q 2034 3584 2315 3537 
Q 2597 3491 2834 3397 
z
" transform="scale(0.015625)"/>
      <path id="DejaVuSans-78" d="M 3513 3500 
L 2247 1797 
L 3578 0 
L 2900 0 
L 1881 1375 
L 863 0 
L 184 0 
L 1544 1831 
L 300 3500 
L 978 3500 
L 1906 2253 
L 2834 3500 
L 3513 3500 
z
" transform="scale(0.015625)"/>
      <path id="DejaVuSans-6d" d="M 3328 2828 
Q 3544 3216 3844 3400 
Q 4144 3584 4550 3584 
Q 5097 3584 5394 3201 
Q 5691 2819 5691 2113 
L 5691 0 
L 5113 0 
L 5113 2094 
Q 5113 2597 4934 2840 
Q 4756 3084 4391 3084 
Q 3944 3084 3684 2787 
Q 3425 2491 3425 1978 
L 3425 0 
L 2847 0 
L 2847 2094 
Q 2847 2600 2669 2842 
Q 2491 3084 2119 3084 
Q 1678 3084 1418 2786 
Q 1159 2488 1159 1978 
L 1159 0 
L 581 0 
L 581 3500 
L 1159 3500 
L 1159 2956 
Q 1356 3278 1631 3431 
Q 1906 3584 2284 3584 
Q 2666 3584 2933 3390 
Q 3200 3197 3328 2828 
z
" transform="scale(0.015625)"/>
      <path id="DejaVuSans-70" d="M 1159 525 
L 1159 -1331 
L 581 -1331 
L 581 3500 
L 1159 3500 
L 1159 2969 
Q 1341 3281 1617 3432 
Q 1894 3584 2278 3584 
Q 2916 3584 3314 3078 
Q 3713 2572 3713 1747 
Q 3713 922 3314 415 
Q 2916 -91 2278 -91 
Q 1894 -91 1617 61 
Q 1341 213 1159 525 
z
M 3116 1747 
Q 3116 2381 2855 2742 
Q 2594 3103 2138 3103 
Q 1681 3103 1420 2742 
Q 1159 2381 1159 1747 
Q 1159 1113 1420 752 
Q 1681 391 2138 391 
Q 2594 391 2855 752 
Q 3116 1113 3116 1747 
z
" transform="scale(0.015625)"/>
      <path id="DejaVuSans-6c" d="M 603 4863 
L 1178 4863 
L 1178 0 
L 603 0 
L 603 4863 
z
" transform="scale(0.015625)"/>
      <path id="DejaVuSans-2f" d="M 1625 4666 
L 2156 4666 
L 531 -594 
L 0 -594 
L 1625 4666 
z
" transform="scale(0.015625)"/>
      <path id="DejaVuSans-2d" d="M 313 2009 
L 1997 2009 
L 1997 1497 
L 313 1497 
L 313 2009 
z
" transform="scale(0.015625)"/>
      <path id="DejaVuSans-38" d="M 2034 2216 
Q 1584 2216 1326 1975 
Q 1069 1734 1069 1313 
Q 1069 891 1326 650 
Q 1584 409 2034 409 
Q 2484 409 2743 651 
Q 3003 894 3003 1313 
Q 3003 1734 2745 1975 
Q 2488 2216 2034 2216 
z
M 1403 2484 
Q 997 2584 770 2862 
Q 544 3141 544 3541 
Q 544 4100 942 4425 
Q 1341 4750 2034 4750 
Q 2731 4750 3128 4425 
Q 3525 4100 3525 3541 
Q 3525 3141 3298 2862 
Q 3072 2584 2669 2484 
Q 3125 2378 3379 2068 
Q 3634 1759 3634 1313 
Q 3634 634 3220 271 
Q 2806 -91 2034 -91 
Q 1263 -91 848 271 
Q 434 634 434 1313 
Q 434 1759 690 2068 
Q 947 2378 1403 2484 
z
M 1172 3481 
Q 1172 3119 1398 2916 
Q 1625 2713 2034 2713 
Q 2441 2713 2670 2916 
Q 2900 3119 2900 3481 
Q 2900 3844 2670 4047 
Q 2441 4250 2034 4250 
Q 1625 4250 1398 4047 
Q 1172 3844 1172 3481 
z
" transform="scale(0.015625)"/>
     </defs>
     <use xlink:href="#DejaVuSans-45"/>
     <use xlink:href="#DejaVuSans-72" x="63.183594"/>
     <use xlink:href="#DejaVuSans-72" x="102.546875"/>
     <use xlink:href="#DejaVuSans-6f" x="141.410156"/>
     <use xlink:href="#DejaVuSans-72" x="202.591797"/>
     <use xlink:href="#DejaVuSans-20" x="243.705078"/>
     <use xlink:href="#DejaVuSans-50" x="275.492188"/>
     <use xlink:href="#DejaVuSans-72" x="334.044922"/>
     <use xlink:href="#DejaVuSans-6f" x="372.908203"/>
     <use xlink:href="#DejaVuSans-67" x="434.089844"/>
     <use xlink:href="#DejaVuSans-72" x="497.566406"/>
     <use xlink:href="#DejaVuSans-65" x="536.429688"/>
     <use xlink:href="#DejaVuSans-73" x="597.953125"/>
     <use xlink:href="#DejaVuSans-73" x="650.052734"/>
     <use xlink:href="#DejaVuSans-69" x="702.152344"/>
     <use xlink:href="#DejaVuSans-6f" x="729.935547"/>
     <use xlink:href="#DejaVuSans-6e" x="791.117188"/>
     <use xlink:href="#DejaVuSans-20" x="854.496094"/>
     <use xlink:href="#DejaVuSans-69" x="886.283203"/>
     <use xlink:href="#DejaVuSans-6e" x="914.066406"/>
     <use xlink:href="#DejaVuSans-20" x="977.445312"/>
     <use xlink:href="#DejaVuSans-45" x="1009.232422"/>
     <use xlink:href="#DejaVuSans-78" x="1072.416016"/>
     <use xlink:href="#DejaVuSans-61" x="1131.595703"/>
     <use xlink:href="#DejaVuSans-6d" x="1192.875"/>
     <use xlink:href="#DejaVuSans-70" x="1290.287109"/>
     <use xlink:href="#DejaVuSans-6c" x="1353.763672"/>
     <use xlink:href="#DejaVuSans-65" x="1381.546875"/>
     <use xlink:href="#DejaVuSans-20" x="1443.070312"/>
     <use xlink:href="#DejaVuSans-73" x="1474.857422"/>
     <use xlink:href="#DejaVuSans-74" x="1526.957031"/>
     <use xlink:href="#DejaVuSans-72" x="1566.166016"/>
     <use xlink:href="#DejaVuSans-69" x="1607.279297"/>
     <use xlink:href="#DejaVuSans-6e" x="1635.0625"/>
     <use xlink:href="#DejaVuSans-67" x="1698.441406"/>
     <use xlink:href="#DejaVuSans-73" x="1761.917969"/>
     <use xlink:href="#DejaVuSans-2f" x="1814.017578"/>
     <use xlink:href="#DejaVuSans-31" x="1847.708984"/>
     <use xlink:href="#DejaVuSans-2d" x="1911.332031"/>
     <use xlink:href="#DejaVuSans-35" x="1947.416016"/>
     <use xlink:href="#DejaVuSans-38" x="2011.039062"/>
     <use xlink:href="#DejaVuSans-2d" x="2074.662109"/>
     <use xlink:href="#DejaVuSans-31" x="2110.746094"/>
     <use xlink:href="#DejaVuSans-2e" x="2174.369141"/>
     <use xlink:href="#DejaVuSans-70" x="2206.15625"/>
     <use xlink:href="#DejaVuSans-6c" x="2269.632812"/>
    </g>
   </g>
   <g id="legend_1">
    <g id="patch_7">
     <path d="M 300.815313 181.575125 
L 407.72 181.575125 
Q 409.72 181.575125 409.72 179.575125 
L 409.72 48.472 
Q 409.72 46.472 407.72 46.472 
L 300.815313 46.472 
Q 298.815313 46.472 298.815313 48.472 
L 298.815313 179.575125 
Q 298.815313 181.575125 300.815313 181.575125 
z
" style="fill: #ffffff; opacity: 0.8; stroke: #cccccc; stroke-linejoin: miter"/>
    </g>
    <g id="line2d_26">
     <path d="M 302.815313 54.570438 
L 312.815313 54.570438 
L 322.815313 54.570438 
" style="fill: none; stroke: #191970; stroke-width: 1.5; stroke-linecap: square"/>
    </g>
    <g id="text_20">
     <!-- Original NPoint -->
     <g transform="translate(330.815313 58.070438)scale(0.1 -0.1)">
      <defs>
       <path id="DejaVuSans-4f" d="M 2522 4238 
Q 1834 4238 1429 3725 
Q 1025 3213 1025 2328 
Q 1025 1447 1429 934 
Q 1834 422 2522 422 
Q 3209 422 3611 934 
Q 4013 1447 4013 2328 
Q 4013 3213 3611 3725 
Q 3209 4238 2522 4238 
z
M 2522 4750 
Q 3503 4750 4090 4092 
Q 4678 3434 4678 2328 
Q 4678 1225 4090 567 
Q 3503 -91 2522 -91 
Q 1538 -91 948 565 
Q 359 1222 359 2328 
Q 359 3434 948 4092 
Q 1538 4750 2522 4750 
z
" transform="scale(0.015625)"/>
       <path id="DejaVuSans-4e" d="M 628 4666 
L 1478 4666 
L 3547 763 
L 3547 4666 
L 4159 4666 
L 4159 0 
L 3309 0 
L 1241 3903 
L 1241 0 
L 628 0 
L 628 4666 
z
" transform="scale(0.015625)"/>
      </defs>
      <use xlink:href="#DejaVuSans-4f"/>
      <use xlink:href="#DejaVuSans-72" x="78.710938"/>
      <use xlink:href="#DejaVuSans-69" x="119.824219"/>
      <use xlink:href="#DejaVuSans-67" x="147.607422"/>
      <use xlink:href="#DejaVuSans-69" x="211.083984"/>
      <use xlink:href="#DejaVuSans-6e" x="238.867188"/>
      <use xlink:href="#DejaVuSans-61" x="302.246094"/>
      <use xlink:href="#DejaVuSans-6c" x="363.525391"/>
      <use xlink:href="#DejaVuSans-20" x="391.308594"/>
      <use xlink:href="#DejaVuSans-4e" x="423.095703"/>
      <use xlink:href="#DejaVuSans-50" x="497.900391"/>
      <use xlink:href="#DejaVuSans-6f" x="554.578125"/>
      <use xlink:href="#DejaVuSans-69" x="615.759766"/>
      <use xlink:href="#DejaVuSans-6e" x="643.542969"/>
      <use xlink:href="#DejaVuSans-74" x="706.921875"/>
     </g>
    </g>
    <g id="line2d_27">
     <path d="M 302.815313 69.248563 
L 312.815313 69.248563 
L 322.815313 69.248563 
" style="fill: none; stroke: #3cb371; stroke-width: 1.5; stroke-linecap: square"/>
    </g>
    <g id="text_21">
     <!-- NPoint -->
     <g transform="translate(330.815313 72.748563)scale(0.1 -0.1)">
      <use xlink:href="#DejaVuSans-4e"/>
      <use xlink:href="#DejaVuSans-50" x="74.804688"/>
      <use xlink:href="#DejaVuSans-6f" x="131.482422"/>
      <use xlink:href="#DejaVuSans-69" x="192.664062"/>
      <use xlink:href="#DejaVuSans-6e" x="220.447266"/>
      <use xlink:href="#DejaVuSans-74" x="283.826172"/>
     </g>
    </g>
    <g id="line2d_28">
     <path d="M 302.815313 83.926688 
L 312.815313 83.926688 
L 322.815313 83.926688 
" style="fill: none; stroke: #9370db; stroke-width: 1.5; stroke-linecap: square"/>
    </g>
    <g id="text_22">
     <!-- Two-Point -->
     <g transform="translate(330.815313 87.426688)scale(0.1 -0.1)">
      <defs>
       <path id="DejaVuSans-54" d="M -19 4666 
L 3928 4666 
L 3928 4134 
L 2272 4134 
L 2272 0 
L 1638 0 
L 1638 4134 
L -19 4134 
L -19 4666 
z
" transform="scale(0.015625)"/>
       <path id="DejaVuSans-77" d="M 269 3500 
L 844 3500 
L 1563 769 
L 2278 3500 
L 2956 3500 
L 3675 769 
L 4391 3500 
L 4966 3500 
L 4050 0 
L 3372 0 
L 2619 2869 
L 1863 0 
L 1184 0 
L 269 3500 
z
" transform="scale(0.015625)"/>
      </defs>
      <use xlink:href="#DejaVuSans-54"/>
      <use xlink:href="#DejaVuSans-77" x="44.583984"/>
      <use xlink:href="#DejaVuSans-6f" x="126.371094"/>
      <use xlink:href="#DejaVuSans-2d" x="189.427734"/>
      <use xlink:href="#DejaVuSans-50" x="225.511719"/>
      <use xlink:href="#DejaVuSans-6f" x="282.189453"/>
      <use xlink:href="#DejaVuSans-69" x="343.371094"/>
      <use xlink:href="#DejaVuSans-6e" x="371.154297"/>
      <use xlink:href="#DejaVuSans-74" x="434.533203"/>
     </g>
    </g>
    <g id="line2d_29">
     <path d="M 302.815313 98.604813 
L 312.815313 98.604813 
L 322.815313 98.604813 
" style="fill: none; stroke: #ff4500; stroke-width: 1.5; stroke-linecap: square"/>
    </g>
    <g id="text_23">
     <!-- Uniform -->
     <g transform="translate(330.815313 102.104813)scale(0.1 -0.1)">
      <defs>
       <path id="DejaVuSans-55" d="M 556 4666 
L 1191 4666 
L 1191 1831 
Q 1191 1081 1462 751 
Q 1734 422 2344 422 
Q 2950 422 3222 751 
Q 3494 1081 3494 1831 
L 3494 4666 
L 4128 4666 
L 4128 1753 
Q 4128 841 3676 375 
Q 3225 -91 2344 -91 
Q 1459 -91 1007 375 
Q 556 841 556 1753 
L 556 4666 
z
" transform="scale(0.015625)"/>
       <path id="DejaVuSans-66" d="M 2375 4863 
L 2375 4384 
L 1825 4384 
Q 1516 4384 1395 4259 
Q 1275 4134 1275 3809 
L 1275 3500 
L 2222 3500 
L 2222 3053 
L 1275 3053 
L 1275 0 
L 697 0 
L 697 3053 
L 147 3053 
L 147 3500 
L 697 3500 
L 697 3744 
Q 697 4328 969 4595 
Q 1241 4863 1831 4863 
L 2375 4863 
z
" transform="scale(0.015625)"/>
      </defs>
      <use xlink:href="#DejaVuSans-55"/>
      <use xlink:href="#DejaVuSans-6e" x="73.193359"/>
      <use xlink:href="#DejaVuSans-69" x="136.572266"/>
      <use xlink:href="#DejaVuSans-66" x="164.355469"/>
      <use xlink:href="#DejaVuSans-6f" x="199.560547"/>
      <use xlink:href="#DejaVuSans-72" x="260.742188"/>
      <use xlink:href="#DejaVuSans-6d" x="300.105469"/>
     </g>
    </g>
    <g id="line2d_30">
     <path d="M 302.815313 113.282938 
L 312.815313 113.282938 
L 322.815313 113.282938 
" style="fill: none; stroke: #ffd700; stroke-width: 1.5; stroke-linecap: square"/>
    </g>
    <g id="text_24">
     <!-- Queen Bee -->
     <g transform="translate(330.815313 116.782938)scale(0.1 -0.1)">
      <defs>
       <path id="DejaVuSans-51" d="M 2522 4238 
Q 1834 4238 1429 3725 
Q 1025 3213 1025 2328 
Q 1025 1447 1429 934 
Q 1834 422 2522 422 
Q 3209 422 3611 934 
Q 4013 1447 4013 2328 
Q 4013 3213 3611 3725 
Q 3209 4238 2522 4238 
z
M 3406 84 
L 4238 -825 
L 3475 -825 
L 2784 -78 
Q 2681 -84 2626 -87 
Q 2572 -91 2522 -91 
Q 1538 -91 948 567 
Q 359 1225 359 2328 
Q 359 3434 948 4092 
Q 1538 4750 2522 4750 
Q 3503 4750 4090 4092 
Q 4678 3434 4678 2328 
Q 4678 1516 4351 937 
Q 4025 359 3406 84 
z
" transform="scale(0.015625)"/>
       <path id="DejaVuSans-75" d="M 544 1381 
L 544 3500 
L 1119 3500 
L 1119 1403 
Q 1119 906 1312 657 
Q 1506 409 1894 409 
Q 2359 409 2629 706 
Q 2900 1003 2900 1516 
L 2900 3500 
L 3475 3500 
L 3475 0 
L 2900 0 
L 2900 538 
Q 2691 219 2414 64 
Q 2138 -91 1772 -91 
Q 1169 -91 856 284 
Q 544 659 544 1381 
z
M 1991 3584 
L 1991 3584 
z
" transform="scale(0.015625)"/>
       <path id="DejaVuSans-42" d="M 1259 2228 
L 1259 519 
L 2272 519 
Q 2781 519 3026 730 
Q 3272 941 3272 1375 
Q 3272 1813 3026 2020 
Q 2781 2228 2272 2228 
L 1259 2228 
z
M 1259 4147 
L 1259 2741 
L 2194 2741 
Q 2656 2741 2882 2914 
Q 3109 3088 3109 3444 
Q 3109 3797 2882 3972 
Q 2656 4147 2194 4147 
L 1259 4147 
z
M 628 4666 
L 2241 4666 
Q 2963 4666 3353 4366 
Q 3744 4066 3744 3513 
Q 3744 3084 3544 2831 
Q 3344 2578 2956 2516 
Q 3422 2416 3680 2098 
Q 3938 1781 3938 1306 
Q 3938 681 3513 340 
Q 3088 0 2303 0 
L 628 0 
L 628 4666 
z
" transform="scale(0.015625)"/>
      </defs>
      <use xlink:href="#DejaVuSans-51"/>
      <use xlink:href="#DejaVuSans-75" x="78.710938"/>
      <use xlink:href="#DejaVuSans-65" x="142.089844"/>
      <use xlink:href="#DejaVuSans-65" x="203.613281"/>
      <use xlink:href="#DejaVuSans-6e" x="265.136719"/>
      <use xlink:href="#DejaVuSans-20" x="328.515625"/>
      <use xlink:href="#DejaVuSans-42" x="360.302734"/>
      <use xlink:href="#DejaVuSans-65" x="428.90625"/>
      <use xlink:href="#DejaVuSans-65" x="490.429688"/>
     </g>
    </g>
    <g id="line2d_31">
     <path d="M 302.815313 127.961063 
L 312.815313 127.961063 
L 322.815313 127.961063 
" style="fill: none; stroke: #708090; stroke-width: 1.5; stroke-linecap: square"/>
    </g>
    <g id="text_25">
     <!-- Three Parent -->
     <g transform="translate(330.815313 131.461063)scale(0.1 -0.1)">
      <defs>
       <path id="DejaVuSans-68" d="M 3513 2113 
L 3513 0 
L 2938 0 
L 2938 2094 
Q 2938 2591 2744 2837 
Q 2550 3084 2163 3084 
Q 1697 3084 1428 2787 
Q 1159 2491 1159 1978 
L 1159 0 
L 581 0 
L 581 4863 
L 1159 4863 
L 1159 2956 
Q 1366 3272 1645 3428 
Q 1925 3584 2291 3584 
Q 2894 3584 3203 3211 
Q 3513 2838 3513 2113 
z
" transform="scale(0.015625)"/>
      </defs>
      <use xlink:href="#DejaVuSans-54"/>
      <use xlink:href="#DejaVuSans-68" x="61.083984"/>
      <use xlink:href="#DejaVuSans-72" x="124.462891"/>
      <use xlink:href="#DejaVuSans-65" x="163.326172"/>
      <use xlink:href="#DejaVuSans-65" x="224.849609"/>
      <use xlink:href="#DejaVuSans-20" x="286.373047"/>
      <use xlink:href="#DejaVuSans-50" x="318.160156"/>
      <use xlink:href="#DejaVuSans-61" x="373.962891"/>
      <use xlink:href="#DejaVuSans-72" x="435.242188"/>
      <use xlink:href="#DejaVuSans-65" x="474.105469"/>
      <use xlink:href="#DejaVuSans-6e" x="535.628906"/>
      <use xlink:href="#DejaVuSans-74" x="599.007812"/>
     </g>
    </g>
    <g id="line2d_32">
     <path d="M 302.815313 142.639188 
L 312.815313 142.639188 
L 322.815313 142.639188 
" style="fill: none; stroke: #ff1493; stroke-width: 1.5; stroke-linecap: square"/>
    </g>
    <g id="text_26">
     <!-- Multiple Parent -->
     <g transform="translate(330.815313 146.139188)scale(0.1 -0.1)">
      <defs>
       <path id="DejaVuSans-4d" d="M 628 4666 
L 1569 4666 
L 2759 1491 
L 3956 4666 
L 4897 4666 
L 4897 0 
L 4281 0 
L 4281 4097 
L 3078 897 
L 2444 897 
L 1241 4097 
L 1241 0 
L 628 0 
L 628 4666 
z
" transform="scale(0.015625)"/>
      </defs>
      <use xlink:href="#DejaVuSans-4d"/>
      <use xlink:href="#DejaVuSans-75" x="86.279297"/>
      <use xlink:href="#DejaVuSans-6c" x="149.658203"/>
      <use xlink:href="#DejaVuSans-74" x="177.441406"/>
      <use xlink:href="#DejaVuSans-69" x="216.650391"/>
      <use xlink:href="#DejaVuSans-70" x="244.433594"/>
      <use xlink:href="#DejaVuSans-6c" x="307.910156"/>
      <use xlink:href="#DejaVuSans-65" x="335.693359"/>
      <use xlink:href="#DejaVuSans-20" x="397.216797"/>
      <use xlink:href="#DejaVuSans-50" x="429.003906"/>
      <use xlink:href="#DejaVuSans-61" x="484.806641"/>
      <use xlink:href="#DejaVuSans-72" x="546.085938"/>
      <use xlink:href="#DejaVuSans-65" x="584.949219"/>
      <use xlink:href="#DejaVuSans-6e" x="646.472656"/>
      <use xlink:href="#DejaVuSans-74" x="709.851562"/>
     </g>
    </g>
    <g id="line2d_33">
     <path d="M 302.815313 157.317313 
L 312.815313 157.317313 
L 322.815313 157.317313 
" style="fill: none; stroke: #cd853f; stroke-width: 1.5; stroke-linecap: square"/>
    </g>
    <g id="text_27">
     <!-- Random -->
     <g transform="translate(330.815313 160.817313)scale(0.1 -0.1)">
      <defs>
       <path id="DejaVuSans-52" d="M 2841 2188 
Q 3044 2119 3236 1894 
Q 3428 1669 3622 1275 
L 4263 0 
L 3584 0 
L 2988 1197 
Q 2756 1666 2539 1819 
Q 2322 1972 1947 1972 
L 1259 1972 
L 1259 0 
L 628 0 
L 628 4666 
L 2053 4666 
Q 2853 4666 3247 4331 
Q 3641 3997 3641 3322 
Q 3641 2881 3436 2590 
Q 3231 2300 2841 2188 
z
M 1259 4147 
L 1259 2491 
L 2053 2491 
Q 2509 2491 2742 2702 
Q 2975 2913 2975 3322 
Q 2975 3731 2742 3939 
Q 2509 4147 2053 4147 
L 1259 4147 
z
" transform="scale(0.015625)"/>
       <path id="DejaVuSans-64" d="M 2906 2969 
L 2906 4863 
L 3481 4863 
L 3481 0 
L 2906 0 
L 2906 525 
Q 2725 213 2448 61 
Q 2172 -91 1784 -91 
Q 1150 -91 751 415 
Q 353 922 353 1747 
Q 353 2572 751 3078 
Q 1150 3584 1784 3584 
Q 2172 3584 2448 3432 
Q 2725 3281 2906 2969 
z
M 947 1747 
Q 947 1113 1208 752 
Q 1469 391 1925 391 
Q 2381 391 2643 752 
Q 2906 1113 2906 1747 
Q 2906 2381 2643 2742 
Q 2381 3103 1925 3103 
Q 1469 3103 1208 2742 
Q 947 2381 947 1747 
z
" transform="scale(0.015625)"/>
      </defs>
      <use xlink:href="#DejaVuSans-52"/>
      <use xlink:href="#DejaVuSans-61" x="67.232422"/>
      <use xlink:href="#DejaVuSans-6e" x="128.511719"/>
      <use xlink:href="#DejaVuSans-64" x="191.890625"/>
      <use xlink:href="#DejaVuSans-6f" x="255.367188"/>
      <use xlink:href="#DejaVuSans-6d" x="316.548828"/>
     </g>
    </g>
    <g id="line2d_34">
     <path d="M 302.815313 171.995438 
L 312.815313 171.995438 
L 322.815313 171.995438 
" style="fill: none; stroke: #000000; stroke-width: 1.5; stroke-linecap: square"/>
    </g>
    <g id="text_28">
     <!-- Initial Error -->
     <g transform="translate(330.815313 175.495438)scale(0.1 -0.1)">
      <use xlink:href="#DejaVuSans-49"/>
      <use xlink:href="#DejaVuSans-6e" x="29.492188"/>
      <use xlink:href="#DejaVuSans-69" x="92.871094"/>
      <use xlink:href="#DejaVuSans-74" x="120.654297"/>
      <use xlink:href="#DejaVuSans-69" x="159.863281"/>
      <use xlink:href="#DejaVuSans-61" x="187.646484"/>
      <use xlink:href="#DejaVuSans-6c" x="248.925781"/>
      <use xlink:href="#DejaVuSans-20" x="276.708984"/>
      <use xlink:href="#DejaVuSans-45" x="308.496094"/>
      <use xlink:href="#DejaVuSans-72" x="371.679688"/>
      <use xlink:href="#DejaVuSans-72" x="411.042969"/>
      <use xlink:href="#DejaVuSans-6f" x="449.90625"/>
      <use xlink:href="#DejaVuSans-72" x="511.087891"/>
     </g>
    </g>
   </g>
  </g>
 </g>
 <defs>
  <clipPath id="p53a366d0b6">
   <rect x="57.6" y="41.472" width="357.12" height="266.112"/>
  </clipPath>
 </defs>
</svg>
